<svg width="342" height="185" viewBox="0 0 342 185" fill="none" xmlns="http://www.w3.org/2000/svg">
<g filter="url(#filter0_d_2617_282)">
<path d="M5.98047 68.9598C5.98047 53.0651 5.98047 45.1178 10.9183 40.18C15.8561 35.2422 23.8034 35.2422 39.6981 35.2422H107.133C123.028 35.2422 130.975 35.2422 135.913 40.18C140.851 45.1178 140.851 53.0652 140.851 68.9598V181.533H5.98047V68.9598Z" fill="#F9F9F9"/>
<path d="M107.133 33.6104C115.034 33.6104 121.125 33.6069 125.85 34.2422C130.621 34.8837 134.244 36.2039 137.066 39.0264C139.889 41.8489 141.209 45.4723 141.851 50.2441C142.486 54.9689 142.482 61.059 142.482 68.96V183.164H4.34863V68.96C4.34863 61.059 4.34529 54.9689 4.98047 50.2441C5.62202 45.4723 6.94208 41.8489 9.76465 39.0264C12.5872 36.2038 16.2106 34.8837 20.9824 34.2422C25.7072 33.607 31.7973 33.6104 39.6982 33.6104H107.133Z" stroke="white" stroke-width="3.26299"/>
</g>
<path d="M19.0312 161.415C19.0312 158.411 21.4661 155.977 24.4696 155.977H92.4486V178.274H24.4696C21.4661 178.274 19.0312 175.839 19.0312 172.835V161.415Z" fill="#ECECEC"/>
<path d="M19.0312 112.466C19.0312 109.462 21.4661 107.027 24.4696 107.027H92.4486V129.324H24.4696C21.4661 129.324 19.0312 126.89 19.0312 123.886V112.466Z" fill="#ECECEC"/>
<path d="M19.0312 80.3836C19.0312 77.3801 21.4661 74.9453 24.4696 74.9453H92.4486V97.2424H24.4696C21.4661 97.2424 19.0312 94.8076 19.0312 91.8041V80.3836Z" fill="#ECECEC"/>
<g filter="url(#filter1_d_2617_282)">
<path d="M97.3438 33.6096C97.3438 20.7913 97.3438 14.3822 101.326 10.4001C105.308 6.41797 111.717 6.41797 124.535 6.41797H249.073C261.891 6.41797 268.3 6.41797 272.282 10.4001C276.265 14.3822 276.265 20.7913 276.265 33.6096V181.532H97.3438V33.6096Z" fill="#F9F9F9"/>
<path d="M249.073 4.78613C255.436 4.78613 260.373 4.78306 264.209 5.29883C268.092 5.8209 271.091 6.90175 273.436 9.24609C275.78 11.5908 276.862 14.5905 277.384 18.4736C277.9 22.3099 277.896 27.2465 277.896 33.6094V183.163H95.7119V33.6094C95.7119 27.2465 95.7088 22.3099 96.2246 18.4736C96.7467 14.5905 97.8272 11.5908 100.172 9.24609C102.517 6.90143 105.516 5.82093 109.399 5.29883C113.236 4.78306 118.172 4.78613 124.535 4.78613H249.073Z" stroke="white" stroke-width="3.26299"/>
</g>
<line x1="107.133" y1="34.1593" x2="267.019" y2="34.1593" stroke="#A7A7A7" stroke-width="1.08766" stroke-dasharray="3.81 3.81"/>
<line x1="14.6836" y1="57.5421" x2="92.4516" y2="57.5421" stroke="#A7A7A7" stroke-width="1.08766" stroke-dasharray="3.81 3.81"/>
<path d="M111.077 18.0355V19.7344H112.929V20.2813H111.077V22.0313H113.147V22.5781H110.413V17.4886H113.147V18.0355H111.077ZM118.957 18.5094C119.268 18.5094 119.545 18.5751 119.788 18.7063C120.031 18.8327 120.223 19.0247 120.364 19.2823C120.505 19.54 120.575 19.8535 120.575 20.2229V22.5781H119.919V20.3177C119.919 19.9191 119.819 19.6153 119.62 19.4063C119.426 19.1924 119.161 19.0855 118.825 19.0855C118.48 19.0855 118.205 19.1973 118.001 19.4209C117.797 19.6396 117.695 19.958 117.695 20.3761V22.5781H117.039V20.3177C117.039 19.9191 116.939 19.6153 116.74 19.4063C116.545 19.1924 116.281 19.0855 115.945 19.0855C115.6 19.0855 115.325 19.1973 115.121 19.4209C114.917 19.6396 114.815 19.958 114.815 20.3761V22.5781H114.151V18.5823H114.815V19.1584C114.946 18.9494 115.121 18.7889 115.34 18.6771C115.563 18.5653 115.809 18.5094 116.076 18.5094C116.412 18.5094 116.708 18.5848 116.966 18.7355C117.224 18.8862 117.416 19.1073 117.542 19.399C117.654 19.1171 117.838 18.8983 118.096 18.7428C118.354 18.5872 118.641 18.5094 118.957 18.5094ZM122.327 19.3188C122.458 19.0903 122.653 18.9007 122.911 18.7501C123.173 18.5945 123.477 18.5167 123.822 18.5167C124.177 18.5167 124.498 18.6018 124.784 18.7719C125.076 18.9421 125.305 19.1827 125.47 19.4938C125.635 19.8 125.718 20.1573 125.718 20.5657C125.718 20.9691 125.635 21.3288 125.47 21.6448C125.305 21.9608 125.076 22.2063 124.784 22.3813C124.498 22.5563 124.177 22.6437 123.822 22.6437C123.482 22.6437 123.18 22.5684 122.918 22.4177C122.66 22.2622 122.463 22.0701 122.327 21.8417V24.4739H121.664V18.5823H122.327V19.3188ZM125.04 20.5657C125.04 20.2643 124.979 20.0018 124.857 19.7782C124.736 19.5546 124.571 19.3844 124.362 19.2678C124.157 19.1511 123.931 19.0928 123.683 19.0928C123.44 19.0928 123.214 19.1535 123.005 19.275C122.801 19.3917 122.636 19.5643 122.509 19.7927C122.388 20.0164 122.327 20.2764 122.327 20.5729C122.327 20.8743 122.388 21.1393 122.509 21.3677C122.636 21.5913 122.801 21.7639 123.005 21.8854C123.214 22.0021 123.44 22.0604 123.683 22.0604C123.931 22.0604 124.157 22.0021 124.362 21.8854C124.571 21.7639 124.736 21.5913 124.857 21.3677C124.979 21.1393 125.04 20.8719 125.04 20.5657ZM127.255 17.1824V22.5781H126.591V17.1824H127.255ZM130.128 22.6437C129.754 22.6437 129.414 22.5587 129.107 22.3885C128.806 22.2184 128.568 21.9778 128.393 21.6667C128.223 21.3507 128.138 20.9861 128.138 20.5729C128.138 20.1646 128.225 19.8049 128.4 19.4938C128.58 19.1778 128.823 18.9372 129.129 18.7719C129.436 18.6018 129.778 18.5167 130.157 18.5167C130.537 18.5167 130.879 18.6018 131.186 18.7719C131.492 18.9372 131.732 19.1754 131.907 19.4865C132.087 19.7976 132.177 20.1598 132.177 20.5729C132.177 20.9861 132.085 21.3507 131.9 21.6667C131.72 21.9778 131.475 22.2184 131.164 22.3885C130.853 22.5587 130.507 22.6437 130.128 22.6437ZM130.128 22.0604C130.366 22.0604 130.59 22.0045 130.799 21.8927C131.008 21.7809 131.176 21.6132 131.302 21.3896C131.433 21.166 131.499 20.8938 131.499 20.5729C131.499 20.2521 131.436 19.9799 131.31 19.7563C131.183 19.5327 131.018 19.3674 130.814 19.2605C130.61 19.1487 130.388 19.0928 130.15 19.0928C129.907 19.0928 129.683 19.1487 129.479 19.2605C129.28 19.3674 129.12 19.5327 128.998 19.7563C128.877 19.9799 128.816 20.2521 128.816 20.5729C128.816 20.8986 128.874 21.1733 128.991 21.3969C129.112 21.6205 129.273 21.7882 129.472 21.9C129.671 22.007 129.89 22.0604 130.128 22.0604ZM136.491 18.5823L134.085 24.4593H133.4L134.187 22.5344L132.576 18.5823H133.312L134.566 21.8198L135.806 18.5823H136.491ZM140.804 20.4271C140.804 20.5535 140.797 20.6872 140.782 20.8281H137.588C137.613 21.2219 137.746 21.5306 137.989 21.7542C138.237 21.9729 138.536 22.0823 138.886 22.0823C139.173 22.0823 139.411 22.0167 139.601 21.8854C139.795 21.7493 139.931 21.5695 140.009 21.3459H140.724C140.617 21.7299 140.403 22.0434 140.082 22.2865C139.761 22.5247 139.363 22.6437 138.886 22.6437C138.507 22.6437 138.167 22.5587 137.866 22.3885C137.569 22.2184 137.336 21.9778 137.166 21.6667C136.995 21.3507 136.91 20.9861 136.91 20.5729C136.91 20.1598 136.993 19.7976 137.158 19.4865C137.324 19.1754 137.554 18.9372 137.851 18.7719C138.152 18.6018 138.497 18.5167 138.886 18.5167C139.266 18.5167 139.601 18.5994 139.893 18.7646C140.184 18.9299 140.408 19.1584 140.563 19.45C140.724 19.7368 140.804 20.0625 140.804 20.4271ZM140.119 20.2886C140.119 20.0358 140.063 19.8195 139.951 19.6396C139.839 19.4549 139.686 19.3164 139.492 19.224C139.302 19.1268 139.091 19.0782 138.857 19.0782C138.522 19.0782 138.235 19.1851 137.997 19.399C137.763 19.6129 137.63 19.9094 137.596 20.2886H140.119ZM145.326 20.4271C145.326 20.5535 145.318 20.6872 145.304 20.8281H142.11C142.134 21.2219 142.268 21.5306 142.511 21.7542C142.759 21.9729 143.058 22.0823 143.408 22.0823C143.695 22.0823 143.933 22.0167 144.123 21.8854C144.317 21.7493 144.453 21.5695 144.531 21.3459H145.245C145.139 21.7299 144.925 22.0434 144.604 22.2865C144.283 22.5247 143.884 22.6437 143.408 22.6437C143.029 22.6437 142.689 22.5587 142.387 22.3885C142.091 22.2184 141.857 21.9778 141.687 21.6667C141.517 21.3507 141.432 20.9861 141.432 20.5729C141.432 20.1598 141.515 19.7976 141.68 19.4865C141.845 19.1754 142.076 18.9372 142.373 18.7719C142.674 18.6018 143.019 18.5167 143.408 18.5167C143.787 18.5167 144.123 18.5994 144.414 18.7646C144.706 18.9299 144.929 19.1584 145.085 19.45C145.245 19.7368 145.326 20.0625 145.326 20.4271ZM144.64 20.2886C144.64 20.0358 144.584 19.8195 144.473 19.6396C144.361 19.4549 144.208 19.3164 144.013 19.224C143.824 19.1268 143.612 19.0782 143.379 19.0782C143.043 19.0782 142.757 19.1851 142.518 19.399C142.285 19.6129 142.151 19.9094 142.117 20.2886H144.64ZM150.821 22.5781L149.611 20.5H148.809V22.5781H148.145V17.4959H149.786C150.17 17.4959 150.493 17.5615 150.756 17.6928C151.023 17.824 151.222 18.0015 151.354 18.2251C151.485 18.4487 151.551 18.7039 151.551 18.9907C151.551 19.3407 151.449 19.6493 151.244 19.9167C151.045 20.1841 150.744 20.3615 150.34 20.449L151.616 22.5781H150.821ZM148.809 19.9677H149.786C150.146 19.9677 150.416 19.8802 150.595 19.7052C150.775 19.5254 150.865 19.2872 150.865 18.9907C150.865 18.6893 150.775 18.456 150.595 18.2907C150.42 18.1254 150.151 18.0428 149.786 18.0428H148.809V19.9677ZM156.227 20.4271C156.227 20.5535 156.22 20.6872 156.206 20.8281H153.012C153.036 21.2219 153.17 21.5306 153.413 21.7542C153.661 21.9729 153.96 22.0823 154.31 22.0823C154.597 22.0823 154.835 22.0167 155.024 21.8854C155.219 21.7493 155.355 21.5695 155.433 21.3459H156.147C156.04 21.7299 155.826 22.0434 155.506 22.2865C155.185 22.5247 154.786 22.6437 154.31 22.6437C153.931 22.6437 153.59 22.5587 153.289 22.3885C152.992 22.2184 152.759 21.9778 152.589 21.6667C152.419 21.3507 152.334 20.9861 152.334 20.5729C152.334 20.1598 152.416 19.7976 152.582 19.4865C152.747 19.1754 152.978 18.9372 153.274 18.7719C153.576 18.6018 153.921 18.5167 154.31 18.5167C154.689 18.5167 155.024 18.5994 155.316 18.7646C155.608 18.9299 155.831 19.1584 155.987 19.45C156.147 19.7368 156.227 20.0625 156.227 20.4271ZM155.542 20.2886C155.542 20.0358 155.486 19.8195 155.374 19.6396C155.262 19.4549 155.109 19.3164 154.915 19.224C154.725 19.1268 154.514 19.0782 154.281 19.0782C153.945 19.0782 153.658 19.1851 153.42 19.399C153.187 19.6129 153.053 19.9094 153.019 20.2886H155.542ZM157.767 19.3188C157.898 19.0903 158.092 18.9007 158.35 18.7501C158.613 18.5945 158.916 18.5167 159.262 18.5167C159.616 18.5167 159.937 18.6018 160.224 18.7719C160.516 18.9421 160.744 19.1827 160.909 19.4938C161.075 19.8 161.157 20.1573 161.157 20.5657C161.157 20.9691 161.075 21.3288 160.909 21.6448C160.744 21.9608 160.516 22.2063 160.224 22.3813C159.937 22.5563 159.616 22.6437 159.262 22.6437C158.921 22.6437 158.62 22.5684 158.357 22.4177C158.1 22.2622 157.903 22.0701 157.767 21.8417V24.4739H157.103V18.5823H157.767V19.3188ZM160.479 20.5657C160.479 20.2643 160.418 20.0018 160.297 19.7782C160.175 19.5546 160.01 19.3844 159.801 19.2678C159.597 19.1511 159.371 19.0928 159.123 19.0928C158.88 19.0928 158.654 19.1535 158.445 19.275C158.241 19.3917 158.075 19.5643 157.949 19.7927C157.828 20.0164 157.767 20.2764 157.767 20.5729C157.767 20.8743 157.828 21.1393 157.949 21.3677C158.075 21.5913 158.241 21.7639 158.445 21.8854C158.654 22.0021 158.88 22.0604 159.123 22.0604C159.371 22.0604 159.597 22.0021 159.801 21.8854C160.01 21.7639 160.175 21.5913 160.297 21.3677C160.418 21.1393 160.479 20.8719 160.479 20.5657ZM163.773 22.6437C163.399 22.6437 163.059 22.5587 162.753 22.3885C162.451 22.2184 162.213 21.9778 162.038 21.6667C161.868 21.3507 161.783 20.9861 161.783 20.5729C161.783 20.1646 161.87 19.8049 162.045 19.4938C162.225 19.1778 162.468 18.9372 162.774 18.7719C163.081 18.6018 163.423 18.5167 163.803 18.5167C164.182 18.5167 164.524 18.6018 164.831 18.7719C165.137 18.9372 165.378 19.1754 165.553 19.4865C165.732 19.7976 165.822 20.1598 165.822 20.5729C165.822 20.9861 165.73 21.3507 165.545 21.6667C165.365 21.9778 165.12 22.2184 164.809 22.3885C164.498 22.5587 164.153 22.6437 163.773 22.6437ZM163.773 22.0604C164.012 22.0604 164.235 22.0045 164.444 21.8927C164.653 21.7809 164.821 21.6132 164.947 21.3896C165.079 21.166 165.144 20.8938 165.144 20.5729C165.144 20.2521 165.081 19.9799 164.955 19.7563C164.828 19.5327 164.663 19.3674 164.459 19.2605C164.255 19.1487 164.034 19.0928 163.795 19.0928C163.552 19.0928 163.329 19.1487 163.124 19.2605C162.925 19.3674 162.765 19.5327 162.643 19.7563C162.522 19.9799 162.461 20.2521 162.461 20.5729C162.461 20.8986 162.519 21.1733 162.636 21.3969C162.757 21.6205 162.918 21.7882 163.117 21.9C163.317 22.007 163.535 22.0604 163.773 22.0604ZM167.358 19.2313C167.475 19.0028 167.64 18.8254 167.854 18.699C168.073 18.5726 168.338 18.5094 168.649 18.5094V19.1948H168.474C167.73 19.1948 167.358 19.5983 167.358 20.4052V22.5781H166.695V18.5823H167.358V19.2313ZM170.224 19.1292V21.4844C170.224 21.6788 170.266 21.8174 170.348 21.9C170.431 21.9778 170.574 22.0167 170.778 22.0167H171.267V22.5781H170.669C170.3 22.5781 170.023 22.4931 169.838 22.3229C169.653 22.1528 169.561 21.8733 169.561 21.4844V19.1292H169.043V18.5823H169.561V17.5761H170.224V18.5823H171.267V19.1292H170.224Z" fill="#242424"/>
<path d="M253.923 22.3484C254.398 21.967 254.77 21.6547 255.039 21.4117C255.308 21.1649 255.534 20.9087 255.718 20.6433C255.905 20.374 255.998 20.1104 255.998 19.8524C255.998 19.6094 255.938 19.4186 255.819 19.2803C255.703 19.1382 255.514 19.0672 255.252 19.0672C254.998 19.0672 254.8 19.1476 254.658 19.3083C254.519 19.4654 254.444 19.6767 254.433 19.9421H253.94C253.955 19.5233 254.082 19.1999 254.321 18.9718C254.56 18.7437 254.869 18.6297 255.246 18.6297C255.632 18.6297 255.936 18.7362 256.161 18.9494C256.389 19.1625 256.503 19.456 256.503 19.83C256.503 20.1403 256.409 20.4432 256.222 20.7386C256.039 21.0303 255.83 21.2883 255.594 21.5126C255.359 21.7333 255.058 21.9913 254.691 22.2867H256.621V22.7129H253.923V22.3484ZM257.199 19.7234C257.226 19.3794 257.358 19.1102 257.598 18.9157C257.837 18.7213 258.147 18.6241 258.529 18.6241C258.783 18.6241 259.002 18.6708 259.185 18.7643C259.372 18.854 259.512 18.9774 259.606 19.1345C259.703 19.2915 259.752 19.4691 259.752 19.6673C259.752 19.8991 259.684 20.0992 259.55 20.2675C259.419 20.4357 259.247 20.5442 259.034 20.5928V20.6208C259.277 20.6807 259.469 20.7984 259.611 20.9742C259.753 21.1499 259.824 21.3799 259.824 21.6641C259.824 21.8772 259.776 22.0698 259.679 22.2418C259.581 22.4101 259.436 22.5428 259.241 22.64C259.047 22.7372 258.813 22.7859 258.54 22.7859C258.144 22.7859 257.818 22.683 257.564 22.4774C257.31 22.268 257.168 21.9726 257.138 21.5912H257.631C257.658 21.8155 257.749 21.9987 257.906 22.1408C258.063 22.2829 258.273 22.354 258.534 22.354C258.796 22.354 258.994 22.2867 259.129 22.1521C259.267 22.0137 259.336 21.8361 259.336 21.6192C259.336 21.3388 259.243 21.1368 259.056 21.0134C258.869 20.89 258.587 20.8284 258.209 20.8284H258.08V20.4021H258.215C258.559 20.3983 258.819 20.3422 258.994 20.2338C259.17 20.1216 259.258 19.9496 259.258 19.7178C259.258 19.5196 259.192 19.3607 259.062 19.241C258.934 19.1214 258.751 19.0615 258.512 19.0615C258.28 19.0615 258.093 19.1214 257.951 19.241C257.809 19.3607 257.725 19.5215 257.699 19.7234H257.199ZM262.123 19.628C262.355 19.628 262.565 19.6785 262.752 19.7795C262.938 19.8767 263.084 20.0244 263.189 20.2226C263.297 20.4208 263.352 20.662 263.352 20.9461V22.7578H262.847V21.0191C262.847 20.7124 262.77 20.4787 262.617 20.3179C262.464 20.1534 262.254 20.0712 261.989 20.0712C261.719 20.0712 261.504 20.1553 261.344 20.3236C261.187 20.4918 261.108 20.7367 261.108 21.0583V22.7578H260.598V18.6072H261.108V20.1216C261.209 19.9646 261.347 19.8431 261.523 19.7571C261.703 19.671 261.903 19.628 262.123 19.628ZM264.696 20.1833C264.786 20.0076 264.913 19.8711 265.077 19.7739C265.246 19.6767 265.449 19.628 265.689 19.628V20.1553H265.554C264.982 20.1553 264.696 20.4656 264.696 21.0864V22.7578H264.185V19.6841H264.696V20.1833Z" fill="#242424"/>
<path d="M22.2687 49.2266L21.0583 47.1485H20.2562V49.2266H19.5927V44.1443H21.2333C21.6173 44.1443 21.9406 44.21 22.2031 44.3412C22.4704 44.4725 22.6697 44.6499 22.801 44.8735C22.9322 45.0971 22.9979 45.3523 22.9979 45.6391C22.9979 45.9891 22.8958 46.2978 22.6916 46.5651C22.4923 46.8325 22.1909 47.0099 21.7875 47.0974L23.0635 49.2266H22.2687ZM20.2562 46.6162H21.2333C21.593 46.6162 21.8628 46.5287 22.0427 46.3537C22.2225 46.1738 22.3125 45.9356 22.3125 45.6391C22.3125 45.3377 22.2225 45.1044 22.0427 44.9391C21.8677 44.7738 21.5979 44.6912 21.2333 44.6912H20.2562V46.6162ZM27.6747 47.0756C27.6747 47.2019 27.6674 47.3356 27.6528 47.4766H24.4591C24.4834 47.8703 24.6171 48.179 24.8601 48.4026C25.108 48.6214 25.407 48.7307 25.757 48.7307C26.0438 48.7307 26.282 48.6651 26.4716 48.5339C26.666 48.3978 26.8021 48.2179 26.8799 47.9943H27.5945C27.4875 48.3783 27.2736 48.6918 26.9528 48.9349C26.632 49.1731 26.2334 49.2922 25.757 49.2922C25.3778 49.2922 25.0375 49.2071 24.7362 49.037C24.4396 48.8668 24.2063 48.6262 24.0362 48.3151C23.866 47.9991 23.781 47.6346 23.781 47.2214C23.781 46.8082 23.8636 46.446 24.0289 46.1349C24.1942 45.8238 24.4251 45.5856 24.7216 45.4204C25.023 45.2502 25.3681 45.1652 25.757 45.1652C26.1361 45.1652 26.4716 45.2478 26.7632 45.4131C27.0549 45.5783 27.2785 45.8068 27.434 46.0985C27.5945 46.3853 27.6747 46.711 27.6747 47.0756ZM26.9893 46.937C26.9893 46.6842 26.9334 46.4679 26.8215 46.2881C26.7097 46.1033 26.5566 45.9648 26.3622 45.8724C26.1726 45.7752 25.9611 45.7266 25.7278 45.7266C25.3924 45.7266 25.1056 45.8336 24.8674 46.0474C24.6341 46.2613 24.5004 46.5578 24.4664 46.937H26.9893ZM29.214 45.9672C29.3453 45.7388 29.5397 45.5492 29.7974 45.3985C30.0599 45.2429 30.3637 45.1652 30.7088 45.1652C31.0637 45.1652 31.3845 45.2502 31.6713 45.4204C31.963 45.5905 32.1914 45.8311 32.3567 46.1422C32.522 46.4485 32.6046 46.8058 32.6046 47.2141C32.6046 47.6176 32.522 47.9773 32.3567 48.2932C32.1914 48.6092 31.963 48.8547 31.6713 49.0297C31.3845 49.2047 31.0637 49.2922 30.7088 49.2922C30.3685 49.2922 30.0672 49.2168 29.8047 49.0661C29.547 48.9106 29.3501 48.7186 29.214 48.4901V51.1224H28.5505V45.2308H29.214V45.9672ZM31.9265 47.2141C31.9265 46.9127 31.8657 46.6502 31.7442 46.4266C31.6227 46.203 31.4574 46.0329 31.2484 45.9162C31.0442 45.7995 30.8182 45.7412 30.5703 45.7412C30.3272 45.7412 30.1012 45.802 29.8922 45.9235C29.688 46.0401 29.5227 46.2127 29.3963 46.4412C29.2748 46.6648 29.214 46.9249 29.214 47.2214C29.214 47.5228 29.2748 47.7877 29.3963 48.0162C29.5227 48.2398 29.688 48.4123 29.8922 48.5339C30.1012 48.6505 30.3272 48.7089 30.5703 48.7089C30.8182 48.7089 31.0442 48.6505 31.2484 48.5339C31.4574 48.4123 31.6227 48.2398 31.7442 48.0162C31.8657 47.7877 31.9265 47.5203 31.9265 47.2141ZM35.2207 49.2922C34.8464 49.2922 34.5061 49.2071 34.1999 49.037C33.8985 48.8668 33.6603 48.6262 33.4853 48.3151C33.3152 47.9991 33.2301 47.6346 33.2301 47.2214C33.2301 46.8131 33.3176 46.4533 33.4926 46.1422C33.6724 45.8263 33.9155 45.5856 34.2217 45.4204C34.528 45.2502 34.8707 45.1652 35.2499 45.1652C35.629 45.1652 35.9717 45.2502 36.278 45.4204C36.5842 45.5856 36.8248 45.8238 36.9998 46.1349C37.1797 46.446 37.2696 46.8082 37.2696 47.2214C37.2696 47.6346 37.1773 47.9991 36.9925 48.3151C36.8127 48.6262 36.5672 48.8668 36.2561 49.037C35.945 49.2071 35.5999 49.2922 35.2207 49.2922ZM35.2207 48.7089C35.4589 48.7089 35.6825 48.653 35.8915 48.5412C36.1005 48.4294 36.2682 48.2616 36.3946 48.038C36.5259 47.8144 36.5915 47.5422 36.5915 47.2214C36.5915 46.9006 36.5283 46.6283 36.4019 46.4047C36.2755 46.1811 36.1103 46.0158 35.9061 45.9089C35.7019 45.7971 35.4808 45.7412 35.2426 45.7412C34.9995 45.7412 34.7759 45.7971 34.5717 45.9089C34.3724 46.0158 34.212 46.1811 34.0905 46.4047C33.969 46.6283 33.9082 46.9006 33.9082 47.2214C33.9082 47.5471 33.9665 47.8217 34.0832 48.0453C34.2047 48.2689 34.3651 48.4366 34.5645 48.5484C34.7638 48.6554 34.9825 48.7089 35.2207 48.7089ZM38.8056 45.8797C38.9222 45.6513 39.0875 45.4738 39.3014 45.3474C39.5202 45.2211 39.7851 45.1579 40.0962 45.1579V45.8433H39.9212C39.1775 45.8433 38.8056 46.2467 38.8056 47.0537V49.2266H38.142V45.2308H38.8056V45.8797ZM41.6715 45.7777V48.1328C41.6715 48.3273 41.7128 48.4658 41.7955 48.5484C41.8781 48.6262 42.0215 48.6651 42.2257 48.6651H42.7142V49.2266H42.1163C41.7469 49.2266 41.4698 49.1415 41.2851 48.9714C41.1003 48.8012 41.008 48.5217 41.008 48.1328V45.7777H40.4903V45.2308H41.008V44.2245H41.6715V45.2308H42.7142V45.7777H41.6715Z" fill="#242424"/>
<rect x="109.852" y="48.293" width="150.642" height="22.2971" rx="5.43832" fill="#ECECEC"/>
<rect x="109.852" y="113.559" width="150.642" height="22.2971" rx="5.43832" fill="#ECECEC"/>
<rect x="109.852" y="78.75" width="110.398" height="22.2971" rx="5.43832" fill="#ECECEC"/>
<rect x="109.852" y="144.008" width="110.398" height="22.2971" rx="5.43832" fill="#ECECEC"/>
<g filter="url(#filter2_d_2617_282)">
<rect x="289.895" y="128.246" width="48.5235" height="14.4538" rx="7.22691" fill="#1F66FF"/>
</g>
<path d="M297.984 135.959H298.817C298.89 136.738 299.234 137.209 299.922 137.209C300.62 137.209 301.028 136.684 301.028 135.805V131.657H301.861V135.715C301.861 137.083 301.118 137.925 299.922 137.925C298.772 137.925 298.056 137.155 297.984 135.959ZM303.866 134.573H303.068C303.222 133.514 303.92 132.889 305.098 132.889C306.384 132.889 307.009 133.64 307.009 134.764V136.657C307.009 137.209 307.054 137.554 307.181 137.816H306.339C306.248 137.626 306.221 137.345 306.212 137.055C305.804 137.662 305.152 137.925 304.572 137.925C303.576 137.925 302.905 137.463 302.905 136.548C302.905 135.887 303.268 135.407 303.974 135.171C304.627 134.954 305.288 134.9 306.212 134.89V134.782C306.212 134.003 305.849 133.577 305.025 133.577C304.337 133.577 303.965 133.957 303.866 134.573ZM303.721 136.53C303.721 136.974 304.092 137.237 304.654 137.237C305.541 137.237 306.212 136.539 306.212 135.715V135.488C304.165 135.506 303.721 135.941 303.721 136.53ZM312.292 134.664H311.495C311.369 133.93 310.879 133.577 310.245 133.577C309.358 133.577 308.886 134.229 308.886 135.416C308.886 136.584 309.385 137.246 310.272 137.246C310.916 137.246 311.378 136.901 311.532 136.213H312.329C312.111 137.409 311.305 137.925 310.254 137.925C308.886 137.925 308.071 136.974 308.071 135.416C308.071 133.785 308.905 132.889 310.245 132.889C311.305 132.889 312.138 133.486 312.292 134.664ZM313.314 137.816V131.294H314.111V135.072L316.185 133.006H317.164L314.972 135.153L317.291 137.816H316.276L314.111 135.362V137.816H313.314ZM318.379 134.238C318.379 135.579 321.504 134.474 321.504 136.458C321.504 137.354 320.707 137.925 319.575 137.925C318.433 137.925 317.636 137.382 317.455 136.249H318.252C318.361 136.92 318.859 137.291 319.602 137.291C320.326 137.291 320.707 136.965 320.707 136.512C320.707 135.198 317.618 136.286 317.618 134.293C317.618 133.559 318.189 132.889 319.366 132.889C320.408 132.889 321.178 133.378 321.332 134.573H320.535C320.417 133.822 320 133.541 319.321 133.541C318.723 133.541 318.379 133.84 318.379 134.238ZM324.409 137.925C323.032 137.925 322.207 136.983 322.207 135.416C322.207 133.785 323.059 132.889 324.409 132.889C325.786 132.889 326.61 133.849 326.61 135.416C326.61 137.037 325.758 137.925 324.409 137.925ZM324.409 137.237C325.305 137.237 325.795 136.594 325.795 135.416C325.795 134.247 325.296 133.577 324.409 133.577C323.512 133.577 323.023 134.229 323.023 135.416C323.023 136.575 323.521 137.237 324.409 137.237ZM327.636 137.816V133.006H328.433V133.659C328.759 133.151 329.285 132.889 329.919 132.889C330.942 132.889 331.549 133.486 331.549 134.601V137.816H330.752V134.764C330.752 134.039 330.426 133.568 329.701 133.568C328.904 133.568 328.433 134.284 328.433 134.972V137.816H327.636Z" fill="white"/>
<g filter="url(#filter3_d_2617_282)">
<path d="M281.783 138.445L268.843 109.458L300.184 117.718L286.231 123.938L281.783 138.445Z" fill="black"/>
<path d="M300.526 118.486L286.923 124.55L282.587 138.692L281.929 140.838L281.014 138.788L268.075 109.801L267.358 108.197L269.058 108.644L300.398 116.904L302.71 117.513L300.526 118.486Z" stroke="white" stroke-width="1.68332"/>
</g>
<defs>
<filter id="filter0_d_2617_282" x="-0.000410914" y="30.349" width="144.114" height="154.448" filterUnits="userSpaceOnUse" color-interpolation-filters="sRGB">
<feFlood flood-opacity="0" result="BackgroundImageFix"/>
<feColorMatrix in="SourceAlpha" type="matrix" values="0 0 0 0 0 0 0 0 0 0 0 0 0 0 0 0 0 0 127 0" result="hardAlpha"/>
<feMorphology radius="0.543832" operator="erode" in="SourceAlpha" result="effect1_dropShadow_2617_282"/>
<feOffset dx="-2.17533" dy="-1.08766"/>
<feGaussianBlur stdDeviation="0.543832"/>
<feComposite in2="hardAlpha" operator="out"/>
<feColorMatrix type="matrix" values="0 0 0 0 0 0 0 0 0 0 0 0 0 0 0 0 0 0 0.25 0"/>
<feBlend mode="normal" in2="BackgroundImageFix" result="effect1_dropShadow_2617_282"/>
<feBlend mode="normal" in="SourceGraphic" in2="effect1_dropShadow_2617_282" result="shape"/>
</filter>
<filter id="filter1_d_2617_282" x="89.8401" y="0.0020237" width="189.687" height="184.791" filterUnits="userSpaceOnUse" color-interpolation-filters="sRGB">
<feFlood flood-opacity="0" result="BackgroundImageFix"/>
<feColorMatrix in="SourceAlpha" type="matrix" values="0 0 0 0 0 0 0 0 0 0 0 0 0 0 0 0 0 0 127 0" result="hardAlpha"/>
<feOffset dx="-2.71916" dy="-1.6315"/>
<feGaussianBlur stdDeviation="0.761365"/>
<feComposite in2="hardAlpha" operator="out"/>
<feColorMatrix type="matrix" values="0 0 0 0 0 0 0 0 0 0 0 0 0 0 0 0 0 0 0.25 0"/>
<feBlend mode="normal" in2="BackgroundImageFix" result="effect1_dropShadow_2617_282"/>
<feBlend mode="normal" in="SourceGraphic" in2="effect1_dropShadow_2617_282" result="shape"/>
</filter>
<filter id="filter2_d_2617_282" x="288.893" y="128.246" width="52.7511" height="18.792" filterUnits="userSpaceOnUse" color-interpolation-filters="sRGB">
<feFlood flood-opacity="0" result="BackgroundImageFix"/>
<feColorMatrix in="SourceAlpha" type="matrix" values="0 0 0 0 0 0 0 0 0 0 0 0 0 0 0 0 0 0 127 0" result="hardAlpha"/>
<feMorphology radius="1.11254" operator="erode" in="SourceAlpha" result="effect1_dropShadow_2617_282"/>
<feOffset dx="1.11254" dy="2.22507"/>
<feGaussianBlur stdDeviation="1.61318"/>
<feComposite in2="hardAlpha" operator="out"/>
<feColorMatrix type="matrix" values="0 0 0 0 0 0 0 0 0 0 0 0 0 0 0 0 0 0 0.25 0"/>
<feBlend mode="normal" in2="BackgroundImageFix" result="effect1_dropShadow_2617_282"/>
<feBlend mode="normal" in="SourceGraphic" in2="effect1_dropShadow_2617_282" result="shape"/>
</filter>
<filter id="filter3_d_2617_282" x="263.574" y="105.194" width="42.8382" height="39.7757" filterUnits="userSpaceOnUse" color-interpolation-filters="sRGB">
<feFlood flood-opacity="0" result="BackgroundImageFix"/>
<feColorMatrix in="SourceAlpha" type="matrix" values="0 0 0 0 0 0 0 0 0 0 0 0 0 0 0 0 0 0 127 0" result="hardAlpha"/>
<feOffset dx="-0.561106"/>
<feGaussianBlur stdDeviation="0.869713"/>
<feComposite in2="hardAlpha" operator="out"/>
<feColorMatrix type="matrix" values="0 0 0 0 0 0 0 0 0 0 0 0 0 0 0 0 0 0 0.48 0"/>
<feBlend mode="normal" in2="BackgroundImageFix" result="effect1_dropShadow_2617_282"/>
<feBlend mode="normal" in="SourceGraphic" in2="effect1_dropShadow_2617_282" result="shape"/>
</filter>
</defs>
</svg>
