<svg width="16" height="12" viewBox="0 0 16 12" fill="none" xmlns="http://www.w3.org/2000/svg">
<path d="M0.187471 10.6442L0.861783 9.84343C2.50535 7.8486 5.8852 3.77465 6.25607 3.43749C6.62694 3.10034 7.1973 3.29701 7.43612 3.43749L9.20619 5.20756L11.482 2.51031C11.2994 2.45412 10.2177 1.75171 10.2177 1.75171C9.75407 1.37241 10.0069 0.97166 10.3019 0.908823C10.597 0.845986 14.5248 0.158625 15.2329 0.0237624C15.9409 -0.1111 16.0336 0.360918 15.9915 0.613785L15.0643 5.75541C14.9378 6.17686 14.4321 6.00828 14.2635 5.79756C14.0949 5.58684 13.5049 4.44894 13.5049 4.44894L10.2598 7.31476C9.5012 8.07336 8.86903 7.8205 8.44759 7.39905C8.02614 6.97761 6.76181 5.75541 6.76181 5.75541L0.566804 10.9392C0.566804 10.9392 0.187393 11.2342 0.0609092 11.1499C-0.0655742 11.0656 0.0186911 10.8549 0.187471 10.6442Z" fill="#00BA3E"/>
</svg>
