<svg width="481" height="154" viewBox="0 0 481 154" fill="none" xmlns="http://www.w3.org/2000/svg">
<path d="M3.62941 15V6.69205H0.411144V5.35938H8.42137V6.69205H5.21728V15H3.62941ZM11.6979 15.1843C9.5004 15.1843 8.16772 13.6957 8.16772 11.2288C8.16772 8.66271 9.54293 7.24497 11.6979 7.24497C13.8954 7.24497 15.2281 8.76195 15.2281 11.2288C15.2281 13.7807 13.8529 15.1843 11.6979 15.1843ZM11.6979 13.9083C12.988 13.9083 13.6827 12.9726 13.6827 11.2288C13.6827 9.49917 12.9739 8.52094 11.6979 8.52094C10.4219 8.52094 9.71306 9.47082 9.71306 11.2288C9.71306 12.9443 10.4219 13.9083 11.6979 13.9083ZM19.5404 15.1843C17.5414 15.1843 16.3363 13.6957 16.3363 11.2288C16.3363 8.66271 17.5698 7.24497 19.5404 7.24497C20.4052 7.24497 21.1141 7.59941 21.5961 8.2941V4.79228H23.1131V15H21.5961V14.0785C21.1141 14.7873 20.4052 15.1843 19.5404 15.1843ZM19.7389 13.9083C20.944 13.9083 21.5961 12.9726 21.5961 11.2288C21.5961 9.49917 20.9156 8.52094 19.7389 8.52094C18.5338 8.52094 17.8817 9.485 17.8817 11.2288C17.8817 12.9443 18.5622 13.9083 19.7389 13.9083ZM26.3747 9.91032H24.8577C25.0987 8.23739 26.2471 7.24497 28.1327 7.24497C30.1884 7.24497 31.2092 8.45005 31.2092 10.208V13.1569C31.2092 14.0643 31.2943 14.5889 31.4644 15H29.8765C29.7631 14.7165 29.7206 14.3195 29.7064 13.8942C29.0684 14.7873 28.0902 15.1843 27.1828 15.1843C25.6517 15.1843 24.6025 14.4613 24.6025 13.0152C24.6025 11.9802 25.1696 11.2146 26.3038 10.8318C27.3104 10.4916 28.3312 10.4065 29.6922 10.3923V10.2222C29.6922 9.11639 29.1818 8.52094 28.0193 8.52094C27.041 8.52094 26.5165 9.05968 26.3747 9.91032ZM26.1337 12.9585C26.1337 13.5964 26.6582 13.9934 27.4664 13.9934C28.7281 13.9934 29.6922 12.9868 29.6922 11.7676V11.4273C26.7858 11.4557 26.1337 12.0936 26.1337 12.9585ZM33.4425 18.3033C33.1164 18.3033 32.7761 18.2183 32.606 18.1616V16.999H33.0171C33.882 16.999 34.208 16.8289 34.8602 15.2552L35.087 14.7306L32.0531 7.44345H33.6835L35.5549 12.1503L35.881 13.1853L36.207 12.1503L38.0218 7.44345H39.5671L36.1362 15.879C35.3706 17.7646 34.7893 18.3033 33.4425 18.3033ZM43.4563 15V5.35938H50.1055V6.63534H45.0442V9.38576H49.5668V10.6475H45.0442V13.724H50.1055V15H43.4563ZM56.3717 15L54.7555 12.6749L54.3869 12.0369L54.0183 12.6749L52.4446 15H50.7717L53.5646 11.0729L50.9843 7.44345H52.8132L54.2168 9.485L54.5854 10.1372L54.954 9.485L56.3292 7.44345H57.9879L55.4077 11.0729L58.2006 15H56.3717ZM60.7125 18.119H59.1956V7.44345H60.7125V8.35081C61.1946 7.64194 61.9034 7.24497 62.7683 7.24497C64.7673 7.24497 65.9724 8.7336 65.9724 11.2005C65.9724 13.7666 64.7389 15.1843 62.7683 15.1843C61.9034 15.1843 61.1946 14.8299 60.7125 14.1352V18.119ZM62.584 8.52094C61.3647 8.52094 60.7125 9.47082 60.7125 11.2005C60.7125 12.9301 61.3931 13.9083 62.584 13.9083C63.7749 13.9083 64.427 12.9443 64.427 11.2005C64.427 9.485 63.7465 8.52094 62.584 8.52094ZM74.1532 12.5331C73.742 14.2911 72.4377 15.1843 70.6655 15.1843C68.4397 15.1843 67.0786 13.6957 67.0786 11.2288C67.0786 8.66271 68.4397 7.24497 70.5946 7.24497C72.7779 7.24497 74.0964 8.71942 74.0964 11.1438V11.5124H68.624C68.709 13.0577 69.4321 13.9225 70.6655 13.9225C71.6296 13.9225 72.3101 13.4688 72.5653 12.5331H74.1532ZM70.5946 8.50676C69.503 8.50676 68.8508 9.20145 68.6665 10.4774H72.5228C72.3384 9.20145 71.6721 8.50676 70.5946 8.50676ZM75.6159 15V7.44345H77.1328V8.45005C77.6432 7.64194 78.4372 7.24497 79.4154 7.24497C80.9891 7.24497 81.9673 8.1665 81.9673 9.95285V15H80.4645V10.2648C80.4645 9.17309 79.9825 8.50676 78.9475 8.50676C77.8134 8.50676 77.1328 9.51335 77.1328 10.5625V15H75.6159ZM85.0172 9.42829C85.0172 11.3564 89.8517 9.74019 89.8517 12.8167C89.8517 14.2486 88.5616 15.1843 86.7327 15.1843C84.9038 15.1843 83.6137 14.3337 83.3301 12.5331H84.8471C85.0031 13.483 85.7119 14.0076 86.7752 14.0076C87.796 14.0076 88.3347 13.5539 88.3347 12.9159C88.3347 11.0303 83.5711 12.6182 83.5711 9.51335C83.5711 8.33663 84.4927 7.24497 86.4066 7.24497C88.0937 7.24497 89.3413 8.02473 89.5824 9.91032H88.0654C87.8952 8.84701 87.2998 8.45005 86.3357 8.45005C85.4993 8.45005 85.0172 8.86119 85.0172 9.42829ZM97.939 12.5331C97.5279 14.2911 96.2236 15.1843 94.4514 15.1843C92.2255 15.1843 90.8645 13.6957 90.8645 11.2288C90.8645 8.66271 92.2255 7.24497 94.3805 7.24497C96.5638 7.24497 97.8823 8.71942 97.8823 11.1438V11.5124H92.4099C92.4949 13.0577 93.218 13.9225 94.4514 13.9225C95.4155 13.9225 96.096 13.4688 96.3512 12.5331H97.939ZM94.3805 8.50676C93.2889 8.50676 92.6367 9.20145 92.4524 10.4774H96.3086C96.1243 9.20145 95.458 8.50676 94.3805 8.50676Z" fill="#737373"/>
<path d="M5.19562 42.5168V38.8007H11.0332V32.9631H14.7777V38.8007H20.6153V42.5168H14.7777V48.3828H11.0332V42.5168H5.19562ZM38.071 45.7203C38.8208 45.6254 39.3666 45.4545 39.7083 45.2078C40.3063 44.7711 40.6053 44.0165 40.6053 42.9439C40.6053 42.1276 40.3253 41.4822 39.7653 41.0076C39.4331 40.7323 38.8683 40.4475 38.071 40.1533V45.7203ZM36.7184 30.8417C35.8926 30.8607 35.2803 31.0837 34.8817 31.5109C34.483 31.9285 34.2837 32.5028 34.2837 33.2337C34.2837 34.031 34.5827 34.6622 35.1807 35.1273C35.5129 35.3836 36.0255 35.6209 36.7184 35.8392V30.8417ZM38.0995 51.7572H36.7184V48.9239C34.8485 48.715 33.4531 48.3069 32.5324 47.6994C30.9093 46.6078 30.112 44.7474 30.1405 42.1181H33.9847C34.1176 43.3141 34.3027 44.1162 34.54 44.5243C34.9102 45.1603 35.6363 45.5732 36.7184 45.763V39.6834L35.5651 39.3417C33.7521 38.8102 32.4707 38.0698 31.7209 37.1206C30.9805 36.1714 30.6103 35.0276 30.6103 33.6893C30.6103 32.8065 30.7527 32.0045 31.0374 31.2831C31.3317 30.5617 31.7399 29.94 32.2619 29.4179C32.9358 28.744 33.6857 28.2789 34.5115 28.0226C35.0146 27.8612 35.7502 27.7426 36.7184 27.6666V25.773H38.071V27.6951C39.6182 27.8185 40.8331 28.1982 41.7159 28.8341C43.32 29.8498 44.1506 31.4966 44.2075 33.7747H40.463C40.387 32.9299 40.2446 32.3129 40.0358 31.9238C39.6751 31.2498 39.0202 30.8797 38.071 30.8132V36.2379C40.3301 37.0162 41.8488 37.7044 42.6271 38.3024C43.9085 39.299 44.5492 40.7038 44.5492 42.5168C44.5492 44.9088 43.6712 46.6458 41.9152 47.7279C40.8426 48.3923 39.5707 48.7815 38.0995 48.8954V51.7572Z" fill="#9E9E9E"/>
<path d="M55.6691 34.1449V31.3827C56.9505 31.3258 57.8475 31.2404 58.36 31.1265C59.1763 30.9461 59.8408 30.5854 60.3533 30.0444C60.7045 29.6742 60.9703 29.1806 61.1507 28.5636C61.2551 28.1934 61.3073 27.9182 61.3073 27.7378H64.6817V48.3828H60.5242V34.1449H55.6691ZM70.7897 48.3828C70.8277 46.9021 71.1457 45.5495 71.7437 44.325C72.3227 42.9487 73.6895 41.4917 75.8442 39.954C77.7141 38.6156 78.9243 37.6569 79.4749 37.0779C80.3196 36.1762 80.742 35.189 80.742 34.1164C80.742 33.2432 80.5 32.517 80.0159 31.938C79.5318 31.359 78.8389 31.0695 77.9372 31.0695C76.7032 31.0695 75.8632 31.5299 75.4171 32.4506C75.1608 32.9821 75.0089 33.8269 74.9614 34.9849H71.0175C71.084 33.2289 71.402 31.8099 71.9715 30.7278C73.0536 28.668 74.9757 27.6382 77.7378 27.6382C79.921 27.6382 81.658 28.2456 82.9489 29.4606C84.2398 30.6661 84.8853 32.2655 84.8853 34.2588C84.8853 35.787 84.4297 37.1443 83.5184 38.3308C82.9204 39.1187 81.938 39.9967 80.5712 40.9649L78.9481 42.1181C77.9324 42.8395 77.2348 43.3616 76.8551 43.6843C76.4849 44.007 76.1717 44.382 75.9154 44.8091H84.928V48.3828H70.7897ZM101.487 31.1834C100.879 31.7814 100.034 32.8492 98.9523 34.3869C97.8703 35.9151 96.9638 37.4955 96.2329 39.1282C95.6539 40.4096 95.1318 41.9757 94.6667 43.8267C94.2016 45.6776 93.9691 47.1963 93.9691 48.3828H89.7546C89.878 44.681 91.093 40.832 93.3995 36.8359C94.8898 34.3585 96.138 32.6309 97.1441 31.6533H86.8501L86.9071 28.0083H101.487V31.1834ZM104.021 51.7572C104.837 51.5294 105.435 51.1497 105.815 50.6182C106.204 50.0866 106.427 49.3415 106.484 48.3828H104.021V44.1399H108.406V47.8133C108.406 48.4587 108.321 49.1327 108.15 49.8351C107.979 50.5375 107.661 51.145 107.196 51.6575C106.693 52.2081 106.1 52.621 105.416 52.8962C104.742 53.181 104.277 53.3234 104.021 53.3234V51.7572ZM111.325 34.9992C111.325 32.7875 111.961 30.9983 113.233 29.6315C114.514 28.2551 116.175 27.567 118.216 27.567C121.358 27.567 123.513 28.9575 124.68 31.7387C125.345 33.3143 125.677 35.3883 125.677 37.9607C125.677 40.457 125.359 42.5405 124.723 44.2111C123.508 47.3909 121.277 48.9808 118.031 48.9808C116.484 48.9808 115.093 48.5252 113.859 47.614C112.625 46.6932 111.918 45.3549 111.738 43.5989H115.782C115.876 44.2064 116.133 44.6999 116.55 45.0796C116.968 45.4593 117.523 45.6491 118.216 45.6491C119.555 45.6491 120.494 44.9088 121.035 43.428C121.33 42.6117 121.515 41.4205 121.591 39.8543C121.22 40.3194 120.827 40.6754 120.409 40.9221C119.65 41.3778 118.715 41.6056 117.604 41.6056C115.962 41.6056 114.505 41.0408 113.233 39.9112C111.961 38.7722 111.325 37.1349 111.325 34.9992ZM118.487 38.3024C119.047 38.3024 119.574 38.141 120.067 37.8183C120.988 37.2298 121.448 36.2094 121.448 34.7571C121.448 33.5896 121.173 32.6641 120.622 31.9807C120.081 31.2973 119.336 30.9556 118.387 30.9556C117.694 30.9556 117.101 31.1502 116.607 31.5394C115.829 32.1468 115.44 33.1767 115.44 34.629C115.44 35.8534 115.687 36.7742 116.18 37.3911C116.683 37.9986 117.452 38.3024 118.487 38.3024ZM131.671 41.8476C131.671 42.9582 131.97 43.8646 132.568 44.567C133.166 45.2695 133.925 45.6207 134.846 45.6207C135.748 45.6207 136.455 45.2837 136.968 44.6098C137.49 43.9263 137.751 43.0436 137.751 41.9615C137.751 40.756 137.456 39.8353 136.868 39.1994C136.279 38.5539 135.558 38.2312 134.704 38.2312C134.011 38.2312 133.399 38.44 132.867 38.8576C132.07 39.4746 131.671 40.4713 131.671 41.8476ZM137.38 32.9347C137.38 32.6024 137.252 32.237 136.996 31.8383C136.559 31.1929 135.9 30.8702 135.017 30.8702C133.698 30.8702 132.758 31.6105 132.198 33.0913C131.894 33.9076 131.685 35.1131 131.571 36.7077C132.074 36.1097 132.658 35.6731 133.323 35.3978C133.987 35.1226 134.746 34.9849 135.601 34.9849C137.433 34.9849 138.932 35.6066 140.1 36.8501C141.277 38.0935 141.865 39.6834 141.865 41.6198C141.865 43.5467 141.291 45.2457 140.143 46.717C138.994 48.1882 137.21 48.9239 134.789 48.9239C132.188 48.9239 130.271 47.837 129.037 45.6634C128.078 43.9643 127.599 41.7717 127.599 39.0854C127.599 37.5098 127.665 36.2284 127.798 35.2412C128.036 33.4852 128.496 32.0234 129.179 30.8559C129.768 29.8593 130.537 29.0572 131.486 28.4497C132.445 27.8422 133.588 27.5385 134.917 27.5385C136.835 27.5385 138.363 28.0321 139.502 29.0192C140.641 29.9969 141.282 31.3021 141.424 32.9347H137.38Z" fill="black"/>
<path d="M84.6602 111.503C84.6602 102.38 92.0558 94.9844 101.179 94.9844V94.9844C110.302 94.9844 117.697 102.38 117.697 111.503V153.832H84.6602V111.503Z" fill="url(#paint0_linear_2617_290)"/>
<path d="M41.2969 118.73C41.2969 109.607 48.6925 102.211 57.8155 102.211V102.211C66.9385 102.211 74.3342 109.607 74.3342 118.73V151.767H41.2969V118.73Z" fill="url(#paint1_linear_2617_290)"/>
<path d="M0 133.183C0 124.06 7.39566 116.664 16.5187 116.664V116.664C25.6417 116.664 33.0373 124.06 33.0373 133.183V153.831H0V133.183Z" fill="url(#paint2_linear_2617_290)"/>
<path d="M130.086 107.37C130.086 98.2472 137.482 90.8516 146.605 90.8516V90.8516C155.728 90.8516 163.123 98.2472 163.123 107.37V153.829H130.086V107.37Z" fill="url(#paint3_linear_2617_290)"/>
<path d="M178.609 100.144C178.609 91.0206 186.005 83.625 195.128 83.625V83.625C204.251 83.625 211.647 91.0207 211.647 100.144V153.829H178.609V100.144Z" fill="url(#paint4_linear_2617_290)"/>
<path d="M224.035 99.1124C224.035 89.9894 231.431 82.5938 240.554 82.5938V82.5938C249.677 82.5938 257.072 89.9894 257.072 99.1124V152.798H224.035V99.1124Z" fill="url(#paint5_linear_2617_290)"/>
<path d="M273.59 90.8546C273.59 81.7316 280.985 74.3359 290.108 74.3359V74.3359C299.231 74.3359 306.627 81.7316 306.627 90.8546V151.767H273.59V90.8546Z" fill="url(#paint6_linear_2617_290)"/>
<path d="M316.953 82.5929C316.953 73.4699 324.349 66.0742 333.472 66.0742V66.0742C342.595 66.0742 349.99 73.4699 349.99 82.5929V153.83H316.953V82.5929Z" fill="url(#paint7_linear_2617_290)"/>
<path d="M359.281 61.9445C359.281 52.8215 366.677 45.4258 375.8 45.4258V45.4258C384.923 45.4258 392.319 52.8214 392.319 61.9444V153.829H359.281V61.9445Z" fill="url(#paint8_linear_2617_290)"/>
<path d="M401.609 32.0069C401.609 22.8839 409.005 15.4883 418.128 15.4883V15.4883C427.251 15.4883 434.647 22.8839 434.647 32.0069V152.8H401.609V32.0069Z" fill="url(#paint9_linear_2617_290)"/>
<path d="M447.035 16.5186C447.035 7.39565 454.431 0 463.554 0V0C472.677 0 480.072 7.39565 480.072 16.5186V151.765H447.035V16.5186Z" fill="url(#paint10_linear_2617_290)"/>
<path d="M178.609 128.019C178.609 118.896 186.005 111.5 195.128 111.5V111.5C204.251 111.5 211.647 118.896 211.647 128.019V153.829H178.609V128.019Z" fill="url(#paint11_linear_2617_290)"/>
<path d="M224.035 128.019C224.035 118.896 231.431 111.5 240.554 111.5V111.5C249.677 111.5 257.072 118.896 257.072 128.019V153.829H224.035V128.019Z" fill="url(#paint12_linear_2617_290)"/>
<path d="M274.625 118.73C274.625 109.607 282.021 102.211 291.144 102.211V102.211C300.267 102.211 307.662 109.607 307.662 118.73V153.832H274.625V118.73Z" fill="url(#paint13_linear_2617_290)"/>
<path d="M316.953 111.503C316.953 102.38 324.349 94.9844 333.472 94.9844V94.9844C342.595 94.9844 349.99 102.38 349.99 111.503V153.832H316.953V111.503Z" fill="url(#paint14_linear_2617_290)"/>
<path d="M403.676 71.2374C403.676 62.1144 411.071 54.7188 420.194 54.7188V54.7188C429.317 54.7188 436.713 62.1144 436.713 71.2374V153.831H403.676V71.2374Z" fill="url(#paint15_linear_2617_290)"/>
<path d="M446.004 45.4249C446.004 36.3019 453.4 28.9062 462.523 28.9062V28.9062C471.646 28.9062 479.041 36.3019 479.041 45.4249V153.829H446.004V45.4249Z" fill="url(#paint16_linear_2617_290)"/>
<path d="M360.312 99.1124C360.312 89.9894 367.708 82.5938 376.831 82.5938V82.5938C385.954 82.5938 393.35 89.9894 393.35 99.1124V153.83H360.312V99.1124Z" fill="url(#paint17_linear_2617_290)"/>
<defs>
<linearGradient id="paint0_linear_2617_290" x1="101.179" y1="94.9844" x2="101.179" y2="153.832" gradientUnits="userSpaceOnUse">
<stop stop-color="#E8E8E8"/>
<stop offset="1" stop-color="white"/>
</linearGradient>
<linearGradient id="paint1_linear_2617_290" x1="57.8155" y1="102.211" x2="57.8155" y2="151.767" gradientUnits="userSpaceOnUse">
<stop stop-color="#E8E8E8"/>
<stop offset="1" stop-color="white"/>
</linearGradient>
<linearGradient id="paint2_linear_2617_290" x1="16.5187" y1="116.664" x2="16.5187" y2="153.831" gradientUnits="userSpaceOnUse">
<stop stop-color="#E8E8E8"/>
<stop offset="1" stop-color="white"/>
</linearGradient>
<linearGradient id="paint3_linear_2617_290" x1="146.605" y1="90.8516" x2="146.605" y2="153.829" gradientUnits="userSpaceOnUse">
<stop stop-color="#E8E8E8"/>
<stop offset="1" stop-color="white"/>
</linearGradient>
<linearGradient id="paint4_linear_2617_290" x1="195.128" y1="83.625" x2="195.128" y2="153.829" gradientUnits="userSpaceOnUse">
<stop stop-color="#E8E8E8"/>
<stop offset="1" stop-color="white"/>
</linearGradient>
<linearGradient id="paint5_linear_2617_290" x1="240.554" y1="82.5938" x2="240.554" y2="152.798" gradientUnits="userSpaceOnUse">
<stop stop-color="#E8E8E8"/>
<stop offset="1" stop-color="white"/>
</linearGradient>
<linearGradient id="paint6_linear_2617_290" x1="290.108" y1="74.3359" x2="290.108" y2="151.767" gradientUnits="userSpaceOnUse">
<stop stop-color="#E8E8E8"/>
<stop offset="1" stop-color="white"/>
</linearGradient>
<linearGradient id="paint7_linear_2617_290" x1="333.472" y1="66.0742" x2="333.472" y2="153.83" gradientUnits="userSpaceOnUse">
<stop stop-color="#E8E8E8"/>
<stop offset="1" stop-color="white"/>
</linearGradient>
<linearGradient id="paint8_linear_2617_290" x1="375.8" y1="45.4258" x2="375.8" y2="153.829" gradientUnits="userSpaceOnUse">
<stop stop-color="#E8E8E8"/>
<stop offset="1" stop-color="white"/>
</linearGradient>
<linearGradient id="paint9_linear_2617_290" x1="418.128" y1="15.4883" x2="418.128" y2="152.8" gradientUnits="userSpaceOnUse">
<stop stop-color="#E8E8E8"/>
<stop offset="1" stop-color="white"/>
</linearGradient>
<linearGradient id="paint10_linear_2617_290" x1="463.554" y1="0" x2="463.554" y2="151.765" gradientUnits="userSpaceOnUse">
<stop stop-color="#E8E8E8"/>
<stop offset="1" stop-color="white"/>
</linearGradient>
<linearGradient id="paint11_linear_2617_290" x1="195.128" y1="111.5" x2="195.128" y2="153.829" gradientUnits="userSpaceOnUse">
<stop stop-color="#E8E8E8"/>
<stop offset="1" stop-color="white"/>
</linearGradient>
<linearGradient id="paint12_linear_2617_290" x1="240.554" y1="111.5" x2="240.554" y2="153.829" gradientUnits="userSpaceOnUse">
<stop/>
<stop offset="1" stop-color="white"/>
</linearGradient>
<linearGradient id="paint13_linear_2617_290" x1="291.144" y1="102.211" x2="291.144" y2="153.832" gradientUnits="userSpaceOnUse">
<stop/>
<stop offset="1" stop-color="white"/>
</linearGradient>
<linearGradient id="paint14_linear_2617_290" x1="333.472" y1="94.9844" x2="333.472" y2="153.832" gradientUnits="userSpaceOnUse">
<stop/>
<stop offset="1" stop-color="white"/>
</linearGradient>
<linearGradient id="paint15_linear_2617_290" x1="420.194" y1="54.7187" x2="420.194" y2="153.831" gradientUnits="userSpaceOnUse">
<stop/>
<stop offset="1" stop-color="white"/>
</linearGradient>
<linearGradient id="paint16_linear_2617_290" x1="462.523" y1="28.9062" x2="462.523" y2="153.829" gradientUnits="userSpaceOnUse">
<stop/>
<stop offset="0.959356" stop-color="white"/>
</linearGradient>
<linearGradient id="paint17_linear_2617_290" x1="376.831" y1="82.5938" x2="376.831" y2="153.83" gradientUnits="userSpaceOnUse">
<stop/>
<stop offset="1" stop-color="white"/>
</linearGradient>
</defs>
</svg>
