<svg width="197" height="234" viewBox="0 0 197 234" fill="none" xmlns="http://www.w3.org/2000/svg">
<circle cx="81.9154" cy="76.952" r="28.3021" fill="black"/>
<path d="M136.25 159.588C136.25 145.178 130.526 131.358 120.336 121.168C110.146 110.979 96.3263 105.254 81.916 105.254C67.5058 105.254 53.6857 110.979 43.4961 121.168C33.3065 131.358 27.582 145.178 27.582 159.588L81.916 159.588H136.25Z" fill="#DBDBDB"/>
<path d="M136.885 162.744C136.885 148.238 131.122 134.326 120.865 124.068C110.607 113.81 96.695 108.048 82.1886 108.048C67.6822 108.048 53.77 113.81 43.5124 124.068C33.2548 134.326 27.4922 148.238 27.4922 162.744L82.1886 162.744H136.885Z" fill="#A8A8A8"/>
<path d="M137.015 167.444C137.015 152.921 131.245 138.992 120.976 128.722C110.706 118.453 96.7771 112.683 82.2535 112.683C67.7299 112.683 53.8011 118.453 43.5314 128.722C33.2617 138.992 27.4922 152.921 27.4922 167.444L82.2535 167.444H137.015Z" fill="#787878"/>
<path d="M138.595 177.208C138.595 162.361 132.698 148.123 122.2 137.625C111.702 127.127 97.4634 121.229 82.6171 121.229C67.7707 121.229 53.5323 127.127 43.0344 137.625C32.5364 148.123 26.6387 162.361 26.6387 177.208L82.617 177.208H138.595Z" fill="#232323"/>
<path d="M1 90.6631C14.8736 90.5117 39.4424 71.5932 25.9724 44.1992C25.9724 44.1992 78.3389 44.1992 95.744 5C99.0232 38.2966 123.52 92.4793 177.169 39.6587C245.73 -27.8426 89.9927 80.0687 153.408 123.354" stroke="black" stroke-width="2.42157"/>
</svg>
