<svg width="348" height="141" viewBox="0 0 348 141" fill="none" xmlns="http://www.w3.org/2000/svg">
<rect y="34.5703" width="18.1971" height="55.5011" rx="9.09855" fill="#E0E0E0"/>
<rect y="51.8555" width="18.1971" height="38.2139" rx="9.09855" fill="url(#paint0_linear_2617_350)"/>
<rect x="22.7461" y="39.1211" width="18.1971" height="45.4927" rx="9.09855" fill="#E0E0E0"/>
<rect x="22.7461" y="47.3125" width="18.1971" height="37.304" rx="9.09855" fill="url(#paint1_linear_2617_350)"/>
<rect x="47.3086" y="24.5664" width="18.1971" height="75.5179" rx="9.09855" fill="#E0E0E0"/>
<rect x="47.3086" y="57.3203" width="18.1971" height="42.7632" rx="9.09855" fill="url(#paint2_linear_2617_350)"/>
<rect x="70.0586" y="5.45312" width="18.1971" height="90.0756" rx="9.09855" fill="#E0E0E0"/>
<rect x="70.0586" y="24.5664" width="18.1971" height="70.9687" rx="9.09855" fill="url(#paint3_linear_2617_350)"/>
<rect x="92.8047" y="14.5586" width="18.1971" height="70.0588" rx="9.09855" fill="#E0E0E0"/>
<rect x="92.8047" y="35.4844" width="18.1971" height="49.1321" rx="9.09855" fill="url(#paint4_linear_2617_350)"/>
<rect x="117.367" y="4.54688" width="18.1971" height="87.346" rx="9.09855" fill="#E0E0E0"/>
<rect x="117.367" y="14.5586" width="18.1971" height="77.3376" rx="9.09855" fill="url(#paint5_linear_2617_350)"/>
<rect x="140.117" y="32.7539" width="18.1971" height="72.7884" rx="9.09855" fill="#E0E0E0"/>
<rect x="140.117" y="45.4922" width="18.1971" height="60.0504" rx="9.09855" fill="url(#paint6_linear_2617_350)"/>
<rect x="162.863" y="51.8555" width="18.1971" height="63.6898" rx="9.09855" fill="#E0E0E0"/>
<rect x="187.426" y="31.8477" width="18.1971" height="90.9855" rx="9.09855" fill="#E0E0E0"/>
<rect x="210.176" y="9.10156" width="18.1971" height="106.453" rx="9.09855" fill="#E0E0E0"/>
<rect x="234.738" y="42.7617" width="18.1971" height="95.5347" rx="9.09855" fill="#DBDBDB"/>
<rect x="257.488" width="18.1971" height="115.552" rx="9.09855" fill="#E0E0E0"/>
<rect x="282.055" y="31.8477" width="18.1971" height="73.6982" rx="9.09855" fill="#E0E0E0"/>
<rect x="304.801" y="53.6758" width="18.1971" height="38.2139" rx="9.09855" fill="#E0E0E0"/>
<rect x="329.367" y="39.1211" width="18.1971" height="56.411" rx="9.09855" fill="#E0E0E0"/>
<rect x="162.863" y="73.6992" width="18.1971" height="41.8533" rx="9.09855" fill="url(#paint7_linear_2617_350)"/>
<rect x="187.426" y="45.4922" width="18.1971" height="77.3376" rx="9.09855" fill="url(#paint8_linear_2617_350)"/>
<rect x="210.176" y="24.5664" width="18.1971" height="90.9855" rx="9.09855" fill="url(#paint9_linear_2617_350)"/>
<rect x="234.738" y="80.0664" width="18.1971" height="60.0504" rx="9.09855" fill="url(#paint10_linear_2617_350)"/>
<rect x="257.488" y="20.9219" width="18.1971" height="94.6249" rx="9.09855" fill="url(#paint11_linear_2617_350)"/>
<rect x="282.055" y="42.7617" width="18.1971" height="62.78" rx="9.09855" fill="url(#paint12_linear_2617_350)"/>
<rect x="304.801" y="60.9648" width="18.1971" height="30.9351" rx="9.09855" fill="url(#paint13_linear_2617_350)"/>
<rect x="329.367" y="48.2188" width="18.1971" height="47.3124" rx="9.09855" fill="url(#paint14_linear_2617_350)"/>
<defs>
<linearGradient id="paint0_linear_2617_350" x1="9.09855" y1="51.8555" x2="9.09855" y2="90.0694" gradientUnits="userSpaceOnUse">
<stop stop-color="#868686"/>
<stop offset="1"/>
</linearGradient>
<linearGradient id="paint1_linear_2617_350" x1="31.8446" y1="47.3125" x2="31.8446" y2="84.6165" gradientUnits="userSpaceOnUse">
<stop stop-color="#868686"/>
<stop offset="1"/>
</linearGradient>
<linearGradient id="paint2_linear_2617_350" x1="56.4071" y1="57.3203" x2="56.4071" y2="100.083" gradientUnits="userSpaceOnUse">
<stop stop-color="#868686"/>
<stop offset="1"/>
</linearGradient>
<linearGradient id="paint3_linear_2617_350" x1="79.1571" y1="24.5664" x2="79.1571" y2="95.5351" gradientUnits="userSpaceOnUse">
<stop stop-color="#868686"/>
<stop offset="1"/>
</linearGradient>
<linearGradient id="paint4_linear_2617_350" x1="101.903" y1="35.4844" x2="101.903" y2="84.6165" gradientUnits="userSpaceOnUse">
<stop stop-color="#868686"/>
<stop offset="1"/>
</linearGradient>
<linearGradient id="paint5_linear_2617_350" x1="126.466" y1="14.5586" x2="126.466" y2="91.8962" gradientUnits="userSpaceOnUse">
<stop stop-color="#868686"/>
<stop offset="1"/>
</linearGradient>
<linearGradient id="paint6_linear_2617_350" x1="149.216" y1="45.4922" x2="149.216" y2="105.543" gradientUnits="userSpaceOnUse">
<stop stop-color="#868686"/>
<stop offset="1"/>
</linearGradient>
<linearGradient id="paint7_linear_2617_350" x1="171.962" y1="73.6992" x2="171.962" y2="115.553" gradientUnits="userSpaceOnUse">
<stop stop-color="#868686"/>
<stop offset="1"/>
</linearGradient>
<linearGradient id="paint8_linear_2617_350" x1="196.524" y1="45.4922" x2="196.524" y2="122.83" gradientUnits="userSpaceOnUse">
<stop stop-color="#868686"/>
<stop offset="1"/>
</linearGradient>
<linearGradient id="paint9_linear_2617_350" x1="219.274" y1="24.5664" x2="219.274" y2="115.552" gradientUnits="userSpaceOnUse">
<stop stop-color="#868686"/>
<stop offset="1"/>
</linearGradient>
<linearGradient id="paint10_linear_2617_350" x1="243.837" y1="80.0664" x2="243.837" y2="140.117" gradientUnits="userSpaceOnUse">
<stop stop-color="#8F8F8F"/>
<stop offset="1" stop-color="#151515"/>
</linearGradient>
<linearGradient id="paint11_linear_2617_350" x1="266.587" y1="20.9219" x2="266.587" y2="115.547" gradientUnits="userSpaceOnUse">
<stop stop-color="#868686"/>
<stop offset="1"/>
</linearGradient>
<linearGradient id="paint12_linear_2617_350" x1="291.153" y1="42.7617" x2="291.153" y2="105.542" gradientUnits="userSpaceOnUse">
<stop stop-color="#868686"/>
<stop offset="1"/>
</linearGradient>
<linearGradient id="paint13_linear_2617_350" x1="313.899" y1="60.9648" x2="313.899" y2="91.8999" gradientUnits="userSpaceOnUse">
<stop stop-color="#868686"/>
<stop offset="1"/>
</linearGradient>
<linearGradient id="paint14_linear_2617_350" x1="338.466" y1="48.2188" x2="338.466" y2="95.5312" gradientUnits="userSpaceOnUse">
<stop stop-color="#868686"/>
<stop offset="1"/>
</linearGradient>
</defs>
</svg>
