<svg width="1256" height="665" viewBox="0 0 1256 665" fill="none" xmlns="http://www.w3.org/2000/svg">
<line x1="389.551" y1="2.47599e-08" x2="389.551" y2="665" stroke="url(#paint0_linear_2777_239)" stroke-width="1.21199"/>
<line x1="316.551" y1="2.47599e-08" x2="316.551" y2="665" stroke="url(#paint1_linear_2777_239)" stroke-width="1.21199"/>
<line x1="459.551" y1="2.47599e-08" x2="459.551" y2="665" stroke="url(#paint2_linear_2777_239)" stroke-width="1.21199"/>
<line x1="536.551" y1="2.47599e-08" x2="536.551" y2="665" stroke="url(#paint3_linear_2777_239)" stroke-width="1.21199"/>
<line x1="608.551" y1="2.47599e-08" x2="608.551" y2="665" stroke="url(#paint4_linear_2777_239)" stroke-width="1.21199"/>
<line x1="680.551" y1="2.47599e-08" x2="680.551" y2="665" stroke="url(#paint5_linear_2777_239)" stroke-width="1.21199"/>
<line x1="756.551" y1="2.47599e-08" x2="756.551" y2="665" stroke="url(#paint6_linear_2777_239)" stroke-width="1.21199"/>
<line x1="827.551" y1="2.47599e-08" x2="827.551" y2="665" stroke="url(#paint7_linear_2777_239)" stroke-width="1.21199"/>
<line x1="900.551" y1="2.47599e-08" x2="900.551" y2="665" stroke="url(#paint8_linear_2777_239)" stroke-width="1.21199"/>
<line x1="158" y1="87.7021" x2="1040" y2="87.7021" stroke="url(#paint9_linear_2777_239)" stroke-width="2"/>
<line x1="167" y1="153.702" x2="1049" y2="153.702" stroke="url(#paint10_linear_2777_239)" stroke-width="2"/>
<line x1="167" y1="226.702" x2="1049" y2="226.702" stroke="url(#paint11_linear_2777_239)" stroke-width="2"/>
<line x1="167" y1="296.702" x2="1049" y2="296.702" stroke="url(#paint12_linear_2777_239)" stroke-width="2"/>
<line x1="167" y1="368.702" x2="1049" y2="368.702" stroke="url(#paint13_linear_2777_239)" stroke-width="2"/>
<line x1="167" y1="445.702" x2="1049" y2="445.702" stroke="url(#paint14_linear_2777_239)" stroke-width="2"/>
<line x1="167" y1="514.702" x2="1049" y2="514.702" stroke="url(#paint15_linear_2777_239)" stroke-width="2"/>
<line x1="167" y1="590.702" x2="1049" y2="590.702" stroke="url(#paint16_linear_2777_239)" stroke-width="2"/>
<rect x="81.4308" y="226.431" width="1081.21" height="68.9217" rx="10.769" fill="#F4F4F4" stroke="#DBDBDB" stroke-width="0.861521"/>
<rect x="213.676" y="244.092" width="78.3984" height="12.9228" rx="5.16913" fill="#EBEBEB"/>
<rect x="213.676" y="269.938" width="127.505" height="8.61521" rx="4.3076" fill="#EBEBEB"/>
<rect x="379.949" y="265.63" width="101.659" height="12.9228" rx="5.16913" fill="#EBEBEB"/>
<rect x="517.793" y="266.491" width="95.6288" height="12.9228" rx="5.16913" fill="#EBEBEB"/>
<rect x="517.793" y="244.954" width="95.6288" height="12.9228" rx="5.16913" fill="#EBEBEB"/>
<rect x="667.695" y="244.954" width="218.826" height="12.9228" rx="5.16913" fill="#EBEBEB"/>
<rect x="667.695" y="266.491" width="218.826" height="12.9228" rx="5.16913" fill="#EBEBEB"/>
<rect x="935.629" y="245.815" width="114.582" height="12.9228" rx="5.16913" fill="#EBEBEB"/>
<rect x="379.949" y="244.092" width="101.659" height="12.9228" rx="5.16913" fill="#EBEBEB"/>
<circle cx="1095.45" cy="250.553" r="12.0613" fill="#D9D9D9" stroke="white" stroke-width="0.861521"/>
<circle cx="1111.81" cy="250.553" r="12.0613" fill="#D9D9D9" stroke="white" stroke-width="0.861521"/>
<circle cx="1128.18" cy="250.553" r="12.0613" fill="#D9D9D9" stroke="white" stroke-width="0.861521"/>
<rect x="99.9531" y="244.954" width="61.168" height="37.0454" rx="6.89217" fill="#F0F0F0"/>
<rect x="111.156" y="239.784" width="61.168" height="37.0454" rx="7.75369" fill="#D9D9D9"/>
<rect x="81.4308" y="368.431" width="1081.21" height="68.9217" rx="10.769" fill="#F4F4F4" stroke="#DBDBDB" stroke-width="0.861521"/>
<rect x="213.676" y="386.092" width="78.3984" height="12.9228" rx="5.16913" fill="#EBEBEB"/>
<rect x="213.676" y="411.938" width="127.505" height="8.61521" rx="4.3076" fill="#EBEBEB"/>
<rect x="379.949" y="407.63" width="101.659" height="12.9228" rx="5.16913" fill="#EBEBEB"/>
<rect x="517.793" y="408.491" width="95.6288" height="12.9228" rx="5.16913" fill="#EBEBEB"/>
<rect x="517.793" y="386.954" width="95.6288" height="12.9228" rx="5.16913" fill="#EBEBEB"/>
<rect x="667.695" y="386.954" width="218.826" height="12.9228" rx="5.16913" fill="#EBEBEB"/>
<rect x="667.695" y="408.491" width="218.826" height="12.9228" rx="5.16913" fill="#EBEBEB"/>
<rect x="935.629" y="387.815" width="114.582" height="12.9228" rx="5.16913" fill="#EBEBEB"/>
<rect x="379.949" y="386.092" width="101.659" height="12.9228" rx="5.16913" fill="#EBEBEB"/>
<circle cx="1095.45" cy="392.553" r="12.0613" fill="#D9D9D9" stroke="white" stroke-width="0.861521"/>
<circle cx="1111.81" cy="392.553" r="12.0613" fill="#D9D9D9" stroke="white" stroke-width="0.861521"/>
<circle cx="1128.18" cy="392.553" r="12.0613" fill="#D9D9D9" stroke="white" stroke-width="0.861521"/>
<rect x="99.9531" y="386.954" width="61.168" height="37.0454" rx="6.89217" fill="#F0F0F0"/>
<rect x="111.156" y="381.784" width="61.168" height="37.0454" rx="7.75369" fill="#D9D9D9"/>
<rect x="1" y="290" width="1254" height="79" rx="12" fill="white" stroke="#DDDDDD" stroke-width="2"/>
<rect x="154" y="310" width="91" height="15" rx="6" fill="#EBEBEB"/>
<rect x="154" y="340" width="148" height="10" rx="5" fill="#EBEBEB"/>
<rect x="347" y="335" width="118" height="15" rx="6" fill="#EBEBEB"/>
<rect x="507" y="336" width="111" height="15" rx="6" fill="#EBEBEB"/>
<rect x="507" y="311" width="111" height="15" rx="6" fill="#EBEBEB"/>
<rect x="681" y="311" width="254" height="15" rx="6" fill="#EBEBEB"/>
<rect x="681" y="336" width="254" height="15" rx="6" fill="#EBEBEB"/>
<rect x="992" y="312" width="133" height="15" rx="6" fill="#EBEBEB"/>
<rect x="347" y="310" width="118" height="15" rx="6" fill="#EBEBEB"/>
<circle cx="1177.5" cy="317.5" r="13.5" fill="#D9D9D9" stroke="#DDDDDD" stroke-width="2"/>
<circle cx="1196.5" cy="317.5" r="13.5" fill="#D9D9D9" stroke="#DDDDDD" stroke-width="2"/>
<circle cx="1215.5" cy="317.5" r="13.5" fill="#D9D9D9" stroke="#DDDDDD" stroke-width="2"/>
<rect x="22" y="311" width="71" height="43" rx="8" fill="#F0F0F0"/>
<rect x="35" y="305" width="71" height="43" rx="9" fill="#D9D9D9"/>
<defs>
<linearGradient id="paint0_linear_2777_239" x1="388.445" y1="-2.04291e-08" x2="388.445" y2="665" gradientUnits="userSpaceOnUse">
<stop stop-color="#F5F5F5"/>
<stop offset="0.5" stop-color="#C0C0C0"/>
<stop offset="1" stop-color="#F5F5F5"/>
</linearGradient>
<linearGradient id="paint1_linear_2777_239" x1="315.445" y1="-2.04291e-08" x2="315.445" y2="665" gradientUnits="userSpaceOnUse">
<stop stop-color="#F5F5F5"/>
<stop offset="0.5" stop-color="#C0C0C0"/>
<stop offset="1" stop-color="#F5F5F5"/>
</linearGradient>
<linearGradient id="paint2_linear_2777_239" x1="458.445" y1="-2.04291e-08" x2="458.445" y2="665" gradientUnits="userSpaceOnUse">
<stop stop-color="#F5F5F5"/>
<stop offset="0.5" stop-color="#C0C0C0"/>
<stop offset="1" stop-color="#F5F5F5"/>
</linearGradient>
<linearGradient id="paint3_linear_2777_239" x1="535.445" y1="-2.04291e-08" x2="535.445" y2="665" gradientUnits="userSpaceOnUse">
<stop stop-color="#F5F5F5"/>
<stop offset="0.5" stop-color="#C0C0C0"/>
<stop offset="1" stop-color="#F5F5F5"/>
</linearGradient>
<linearGradient id="paint4_linear_2777_239" x1="607.445" y1="-2.04291e-08" x2="607.445" y2="665" gradientUnits="userSpaceOnUse">
<stop stop-color="#F5F5F5"/>
<stop offset="0.5" stop-color="#C0C0C0"/>
<stop offset="1" stop-color="#F5F5F5"/>
</linearGradient>
<linearGradient id="paint5_linear_2777_239" x1="679.445" y1="-2.04291e-08" x2="679.445" y2="665" gradientUnits="userSpaceOnUse">
<stop stop-color="#F5F5F5"/>
<stop offset="0.5" stop-color="#C0C0C0"/>
<stop offset="1" stop-color="#F5F5F5"/>
</linearGradient>
<linearGradient id="paint6_linear_2777_239" x1="755.445" y1="-2.04291e-08" x2="755.445" y2="665" gradientUnits="userSpaceOnUse">
<stop stop-color="#F5F5F5"/>
<stop offset="0.5" stop-color="#C0C0C0"/>
<stop offset="1" stop-color="#F5F5F5"/>
</linearGradient>
<linearGradient id="paint7_linear_2777_239" x1="826.445" y1="-2.04291e-08" x2="826.445" y2="665" gradientUnits="userSpaceOnUse">
<stop stop-color="#F5F5F5"/>
<stop offset="0.5" stop-color="#C0C0C0"/>
<stop offset="1" stop-color="#F5F5F5"/>
</linearGradient>
<linearGradient id="paint8_linear_2777_239" x1="899.445" y1="-2.04291e-08" x2="899.445" y2="665" gradientUnits="userSpaceOnUse">
<stop stop-color="#F5F5F5"/>
<stop offset="0.5" stop-color="#C0C0C0"/>
<stop offset="1" stop-color="#F5F5F5"/>
</linearGradient>
<linearGradient id="paint9_linear_2777_239" x1="158" y1="89.2021" x2="1040" y2="89.2021" gradientUnits="userSpaceOnUse">
<stop offset="0.00961538" stop-color="#F5F5F5"/>
<stop offset="0.466346" stop-color="#E2E2E2"/>
<stop offset="1" stop-color="#F5F5F5"/>
</linearGradient>
<linearGradient id="paint10_linear_2777_239" x1="167" y1="155.202" x2="1049" y2="155.202" gradientUnits="userSpaceOnUse">
<stop offset="0.00961538" stop-color="#F5F5F5"/>
<stop offset="0.466346" stop-color="#C2C2C2"/>
<stop offset="1" stop-color="#F5F5F5"/>
</linearGradient>
<linearGradient id="paint11_linear_2777_239" x1="167" y1="228.202" x2="1049" y2="228.202" gradientUnits="userSpaceOnUse">
<stop offset="0.00961538" stop-color="#F5F5F5"/>
<stop offset="0.466346" stop-color="#C2C2C2"/>
<stop offset="1" stop-color="#F5F5F5"/>
</linearGradient>
<linearGradient id="paint12_linear_2777_239" x1="167" y1="298.202" x2="1049" y2="298.202" gradientUnits="userSpaceOnUse">
<stop offset="0.00961538" stop-color="#F5F5F5"/>
<stop offset="0.466346" stop-color="#C2C2C2"/>
<stop offset="1" stop-color="#F5F5F5"/>
</linearGradient>
<linearGradient id="paint13_linear_2777_239" x1="167" y1="370.202" x2="1049" y2="370.202" gradientUnits="userSpaceOnUse">
<stop offset="0.00961538" stop-color="#F5F5F5"/>
<stop offset="0.466346" stop-color="#C2C2C2"/>
<stop offset="1" stop-color="#F5F5F5"/>
</linearGradient>
<linearGradient id="paint14_linear_2777_239" x1="167" y1="447.202" x2="1049" y2="447.202" gradientUnits="userSpaceOnUse">
<stop offset="0.00961538" stop-color="#F5F5F5"/>
<stop offset="0.466346" stop-color="#C2C2C2"/>
<stop offset="1" stop-color="#F5F5F5"/>
</linearGradient>
<linearGradient id="paint15_linear_2777_239" x1="167" y1="516.202" x2="1049" y2="516.202" gradientUnits="userSpaceOnUse">
<stop offset="0.00961538" stop-color="#F5F5F5"/>
<stop offset="0.466346" stop-color="#C2C2C2"/>
<stop offset="1" stop-color="#F5F5F5"/>
</linearGradient>
<linearGradient id="paint16_linear_2777_239" x1="85" y1="592" x2="1115" y2="592" gradientUnits="userSpaceOnUse">
<stop offset="0.00961538" stop-color="#F5F5F5"/>
<stop offset="0.501601" stop-color="#DDDDDD"/>
<stop offset="1" stop-color="#F5F5F5"/>
</linearGradient>
</defs>
</svg>
