<svg width="231" height="141" viewBox="0 0 231 141" fill="none" xmlns="http://www.w3.org/2000/svg">
<g filter="url(#filter0_d_2617_292)">
<path d="M0.230378 16.4603L4.11352 140.407H219.905L212.693 19.5462L203.263 11.3173L55.7505 16.4603L41.8821 1.03125L13.544 1.54555C0.674165 1.957 -0.69418 11.6602 0.230378 16.4603Z" fill="#E8E8E8"/>
</g>
<path d="M49.5883 89.9727H41.8253V88.6854H44.4156V70.5693H39.2351V71.8644H37.9399V73.1596H36.6527V74.4468H35.3654V71.8644H36.6527V67.979H37.9399V69.2742H54.7609V67.979H56.056V71.8644H54.7609V74.4468H53.4658V70.5693H46.998V88.6854H49.5883V89.9727ZM65.738 89.9727H63.1477V88.6854H60.5653V87.3903H61.8526V82.2097H60.5653V80.9225H61.8526V78.3322H60.5653V77.0371H56.6799V78.3322H55.3848V79.6274H52.8024V78.3322H54.0896V77.0371H55.3848V75.742H61.8526V77.0371H63.1477V78.3322H64.4428V88.6854H65.738V89.9727ZM60.5653 83.5049H56.6799V82.2097H60.5653V83.5049ZM60.5653 89.9727H55.3848V88.6854H54.0896V87.3903H52.8024V84.8H54.0896V83.5049H56.6799V84.8H55.3848V87.3903H56.6799V88.6854H60.5653V89.9727ZM72.8533 89.9727H67.6807V88.6854H68.9679V69.2742H67.6807V67.979H68.9679V66.6839H70.2631V65.3967H71.5582V82.2097H72.8533V80.9225H74.1485V82.2097H75.4436V83.5049H76.7308V84.8H78.026V86.0951H79.3211V87.3903H80.6162V88.6854H81.9114V89.9727H76.7308V88.6854H78.026V87.3903H76.7308V86.0951H75.4436V84.8H74.1485V83.5049H71.5582V88.6854H72.8533V89.9727ZM78.026 78.3322H76.7308V77.0371H74.796V75.742H80.6162V77.0371H78.026V78.3322ZM76.7308 79.6274H75.4436V78.3322H76.7308V79.6274ZM75.4436 80.9225H74.1485V79.6274H75.4436V80.9225ZM92.2409 89.9727H85.7731V88.6854H84.478V87.3903H83.1828V84.8H81.8956V80.9225H83.1828V78.3322H84.478V79.6274H92.2409V78.3322H90.9458V77.0371H85.7731V75.742H92.2409V77.0371H93.536V78.3322H94.8312V80.9225H84.478V84.8H85.7731V87.3903H87.0682V88.6854H92.2409V89.9727ZM85.7731 78.3322H84.478V77.0371H85.7731V78.3322ZM94.8312 87.3903H93.536V86.0951H94.8312V87.3903ZM93.536 88.6854H92.2409V87.3903H93.536V88.6854ZM111.02 89.9727H109.733V82.2097H102.618V80.9225H109.733V74.4468H111.02V80.9225H118.144V82.2097H111.02V89.9727ZM144.686 74.4468H143.391V73.1596H142.104V71.8644H140.809V70.5693H133.046V69.2742H143.391V71.8644H144.686V74.4468ZM133.046 88.6854H130.455V87.3903H129.16V86.0951H127.865V83.5049H126.578V75.742H127.865V73.1596H129.16V71.8644H130.455V70.5693H133.046V71.8644H131.75V73.1596H130.455V75.742H129.16V83.5049H130.455V86.0951H131.75V87.3903H133.046V88.6854ZM143.391 89.9727H133.046V88.6854H140.809V87.3903H142.104V86.0951H143.391V84.8H144.686V87.3903H143.391V89.9727ZM153.752 89.9727H149.867V88.6854H148.571V77.0371H147.284V75.742H148.571V74.4468H149.867V73.1596H151.162V75.742H155.047V77.0371H151.162V88.6854H153.752V89.9727ZM155.047 88.6854H153.752V87.3903H155.047V88.6854ZM162.155 89.9727H156.982V88.6854H158.269V78.3322H156.982V77.0371H158.269V75.742H159.564V74.4468H160.859V77.0371H162.155V78.3322H160.859V88.6854H162.155V89.9727ZM167.327 78.3322H164.745V77.0371H162.155V75.742H167.327V78.3322ZM173.779 89.9727H168.607V88.6854H169.894V69.2742H168.607V67.979H169.894V66.6839H171.189V65.3967H172.484V88.6854H173.779V89.9727Z" fill="black"/>
<defs>
<filter id="filter0_d_2617_292" x="0" y="-0.00116587" width="230.23" height="140.407" filterUnits="userSpaceOnUse" color-interpolation-filters="sRGB">
<feFlood flood-opacity="0" result="BackgroundImageFix"/>
<feColorMatrix in="SourceAlpha" type="matrix" values="0 0 0 0 0 0 0 0 0 0 0 0 0 0 0 0 0 0 127 0" result="hardAlpha"/>
<feOffset dx="10.3242" dy="-1.03242"/>
<feComposite in2="hardAlpha" operator="out"/>
<feColorMatrix type="matrix" values="0 0 0 0 0 0 0 0 0 0 0 0 0 0 0 0 0 0 1 0"/>
<feBlend mode="normal" in2="BackgroundImageFix" result="effect1_dropShadow_2617_292"/>
<feBlend mode="normal" in="SourceGraphic" in2="effect1_dropShadow_2617_292" result="shape"/>
</filter>
</defs>
</svg>
