<svg width="375" height="94" viewBox="0 0 375 94" fill="none" xmlns="http://www.w3.org/2000/svg">
<path d="M167.488 40V1.11909H177.151L189.444 21.5316L192.417 27.7068L191.96 1.11909H201.108V40H191.445L179.152 19.5875L176.179 13.3551L176.636 40H167.488ZM226.322 40.9148C214.257 40.9148 206.824 33.1387 206.824 20.6167C206.824 8.03761 214.257 0.204247 226.322 0.204247C238.329 0.204247 245.762 8.03761 245.762 20.6167C245.762 33.1387 238.329 40.9148 226.322 40.9148ZM226.322 33.4246C232.668 33.4246 236.385 28.6216 236.385 20.6167C236.385 12.6118 232.668 7.69454 226.322 7.69454C219.918 7.69454 216.201 12.5547 216.201 20.6167C216.201 28.6216 219.918 33.4246 226.322 33.4246ZM272.741 40L265.994 29.9939L264.393 27.1922L262.735 29.9939L255.931 40H246.325L259.59 19.9878L247.24 1.11909H257.875L263.593 9.52423L265.365 12.7262L267.195 9.52423L272.913 1.11909H282.461L270.111 19.7591L283.376 40H272.741ZM297.655 40V8.60938H285.591V1.11909H318.925V8.60938H306.861V40H297.655ZM323.778 40V1.11909H335.842L344.304 24.1046L345.963 29.8795L347.621 24.1046L356.083 1.11909H367.804V40H358.656L359.171 11.3539L356.197 21.017L349.107 40H342.475L335.327 20.9026L332.411 11.4111L332.926 40H323.778ZM168.174 94V55.1191H176.808L187.786 82.0498L189.101 86.1666L190.416 82.0498L201.28 55.1191H209.685V94H203.281L203.453 62.495L200.651 70.843L191.217 94H186.642L177.151 70.7858L174.406 62.6666L174.578 94H168.174ZM245.54 94L242.223 85.2518H224.498L221.182 94H214.778L229.758 55.1191H237.249L252.229 94H245.54ZM232.217 65.068L226.442 80.2201H240.279L234.504 65.068L233.361 61.2943L232.217 65.068ZM257.403 94V55.1191H263.807V94H257.403ZM272.144 94V55.1191H278.548V88.7968H297.359V94H272.144Z" fill="#0D0D0D"/>
<path d="M0 0V94H102.892L38.1081 0H0Z" fill="#0D0D0D"/>
<rect x="107" width="10.1622" height="94.0002" fill="#0D0D0D"/>
<rect x="142.568" width="10.1622" height="94.0002" fill="#0D0D0D"/>
<rect x="124.784" width="10.1622" height="94.0002" fill="#0D0D0D"/>
</svg>
