<svg width="199" height="113" viewBox="0 0 199 113" fill="none" xmlns="http://www.w3.org/2000/svg">
<rect x="4.87455" y="97.0469" width="13.4891" height="13.4891" fill="white" stroke="black" stroke-width="3.74698"/>
<path d="M10.8691 95.9229C11.1189 67.9454 29.1544 11.316 99.298 8.61816" stroke="black" stroke-width="6.74457"/>
<line x1="11.9902" y1="8.61858" x2="92.1757" y2="8.61858" stroke="black" stroke-width="2.24819"/>
<rect x="6.88867" y="1.49902" width="9.74216" height="9.74216" transform="rotate(45 6.88867 1.49902)" fill="black"/>
<rect x="98.1719" width="17.2361" height="17.2361" fill="black"/>
<path d="M54.6236 88.7735C54.5269 88.7735 54.3819 88.7413 54.1885 88.6768C54.0274 88.5801 53.8662 88.4996 53.7051 88.4351C52.8672 87.9839 52.3193 87.3555 52.0615 86.5498C51.8359 85.7118 51.7231 84.8578 51.7231 83.9876C51.7231 82.763 51.852 81.5544 52.1098 80.362C52.3998 79.1373 52.7221 77.9449 53.0766 76.7847C54.0112 73.4974 55.252 70.4519 56.799 67.6481C58.3781 64.812 60.1829 62.0404 62.2133 59.3333C60.8275 59.8811 59.4578 60.4774 58.1042 61.1219C56.7506 61.7342 55.397 62.3627 54.0435 63.0072C53.3022 63.3618 52.561 63.7324 51.8197 64.1191C51.1107 64.5058 50.4017 64.9248 49.6927 65.376L46.7922 67.2613C46.6633 67.3258 46.5505 67.3902 46.4538 67.4547C46.3571 67.5192 46.2604 67.5836 46.1637 67.6481L45.487 68.0832C45.1002 68.2443 44.8102 68.3249 44.6168 68.3249C44.0367 68.3249 43.6177 68.067 43.3599 67.5514C43.1343 67.0357 43.0215 66.5201 43.0215 66.0044C43.0215 65.8433 43.0376 65.6499 43.0699 65.4243C43.1021 65.1987 43.1827 65.0054 43.3116 64.8442C43.5049 64.5864 43.8594 64.2158 44.3751 63.7324C44.923 63.249 45.3258 62.9106 45.5836 62.7172C46.6472 61.7826 47.759 60.9608 48.9192 60.2518C50.0794 59.5105 51.2719 58.7693 52.4965 58.028C52.851 57.7702 53.2055 57.5285 53.5601 57.3029C53.9468 57.0773 54.3335 56.8517 54.7203 56.6261C54.8492 56.5617 54.9459 56.5294 55.0103 56.5294C55.0425 56.5294 55.1231 56.4972 55.252 56.4327C55.4454 56.3683 55.6388 56.2716 55.8321 56.1427C55.9288 56.0782 56.0255 56.0138 56.1222 55.9493C56.2189 55.8849 56.3155 55.8365 56.4122 55.8043C58.1525 54.8375 59.9412 53.9995 61.7782 53.2905C63.6474 52.5493 65.5489 51.9208 67.4825 51.4052C67.8693 50.9218 68.2882 50.4545 68.7394 50.0033C68.965 49.7777 69.1584 49.536 69.3195 49.2781C69.5129 49.0203 69.6901 48.7625 69.8513 48.5047C70.3025 48.6014 70.7859 48.7464 71.3015 48.9397C71.8172 49.1009 72.2523 49.3265 72.6068 49.6165C72.7679 49.6165 72.9291 49.6165 73.0902 49.6165C73.2513 49.6165 73.4125 49.6004 73.5736 49.5682H74.5405C74.8305 49.4071 75.2172 49.3426 75.7007 49.3748C75.9585 49.4071 76.1841 49.4232 76.3774 49.4232C76.603 49.3909 76.7803 49.3748 76.9092 49.3748H77.1026C77.4249 49.2459 77.9244 49.117 78.6012 48.9881C79.3102 48.8592 80.0192 48.7464 80.7282 48.6497C81.4372 48.553 81.9529 48.5047 82.2752 48.5047C82.7586 48.5047 83.3226 48.553 83.9671 48.6497C84.6439 48.7464 85.224 48.8431 85.7074 48.9397C86.3198 49.0687 86.9804 49.4876 87.6895 50.1966C88.4307 50.8734 89.0914 51.6308 89.6715 52.4687C90.2838 53.3066 90.7028 54.0318 90.9284 54.6441C91.0895 55.0953 91.2023 55.5787 91.2668 56.0944C91.3312 56.61 91.3634 57.1256 91.3634 57.6413C91.3634 59.4783 91.025 61.2669 90.3483 63.0072C89.7037 64.7153 88.8497 66.2945 87.7861 67.7448C87.3349 68.3249 86.8999 68.905 86.4809 69.4851C86.0942 70.0329 85.7236 70.6292 85.369 71.2737C85.369 71.2737 85.4657 71.3059 85.6591 71.3704C86.1747 71.5315 86.5776 71.7571 86.8676 72.0472C87.1577 72.3372 87.3027 72.7723 87.3027 73.3524C87.3027 73.5458 87.2383 73.578 87.1094 73.4491L86.9643 73.5458L86.916 73.4974C86.5615 73.1429 86.2231 72.8851 85.9008 72.724C85.5785 72.5628 85.1596 72.45 84.6439 72.3856C83.806 73.7714 82.8875 74.996 81.8884 76.0596C80.9216 77.1231 79.8581 78.2188 78.6979 79.3468H78.6495C78.4239 79.5402 78.0533 79.8625 77.5377 80.3137C77.0542 80.7326 76.5708 81.1194 76.0874 81.4739C75.6362 81.8284 75.3139 81.9895 75.1206 81.9573V82.054C75.1206 82.0862 75.1367 82.1184 75.1689 82.1507V82.2473C75.1044 82.2796 74.895 82.4407 74.5405 82.7308C74.1859 83.0208 73.8314 83.3109 73.4769 83.6009C73.1546 83.8587 72.9452 83.9876 72.8485 83.9876L72.7035 84.4227L70.9631 85.3896L70.8665 85.2445H70.8181L69.8029 85.728V85.8246C69.8674 85.8891 69.9319 85.9213 69.9963 85.9213C70.0608 85.9858 70.093 86.0341 70.093 86.0663V86.1147C70.0608 86.1469 70.0447 86.1791 70.0447 86.2114L69.2228 86.3564V86.4047L68.5944 86.9365L68.5461 87.1299L67.8209 86.6948L67.7242 87.5649L66.7091 87.71L66.6607 87.9033C66.4029 87.9678 66.1451 88.0323 65.8872 88.0967C65.6617 88.1934 65.4522 88.3223 65.2588 88.4834H65.1138C65.0171 88.4834 64.9204 88.4834 64.8237 88.4834C64.727 88.4834 64.6304 88.4996 64.5337 88.5318C64.437 88.564 64.3403 88.5801 64.2436 88.5801C64.1469 88.5801 64.0503 88.5962 63.9536 88.6285L63.9052 88.5318L63.8569 88.5801L63.1318 88.5318L62.9384 88.7735L62.0682 88.7252H62.1166L61.5365 88.6768C61.2464 88.6446 61.0047 88.4512 60.8113 88.0967C60.618 87.7744 60.4729 87.3877 60.3763 86.9365C60.2796 86.4853 60.2312 86.1147 60.2312 85.8246C60.2312 85.5668 60.2474 85.3896 60.2796 85.2929C60.2796 85.2284 60.3763 85.0351 60.5696 84.7128C60.7952 84.3905 61.0208 84.0682 61.2464 83.7459C61.472 83.3914 61.6009 83.1981 61.6332 83.1658C61.7621 83.0369 61.891 82.9241 62.0199 82.8274C62.1488 82.7308 62.2777 82.6341 62.4066 82.5374C62.6644 82.3762 62.9062 82.1829 63.1318 81.9573C63.454 81.6995 63.7763 81.4255 64.0986 81.1355C64.4209 80.8454 64.7432 80.5554 65.0654 80.2653C65.6455 79.7174 66.3062 79.2018 67.0475 78.7184L68.4494 77.7999V78.0416C68.4494 78.1705 68.4816 78.235 68.5461 78.235C68.6105 78.235 68.6911 78.1222 68.7878 77.8966C68.8844 77.671 68.9328 77.5259 68.9328 77.4615L69.3195 77.2681V77.2198L70.9631 76.1563C71.221 75.9951 71.4788 75.8501 71.7366 75.7212C72.0267 75.56 72.3167 75.4311 72.6068 75.3344C72.6068 75.2378 72.6712 75.1733 72.8001 75.1411C72.8646 75.1088 72.9291 75.0605 72.9935 74.996C73.058 74.996 73.203 74.9155 73.4286 74.7543C73.6542 74.561 73.8959 74.3676 74.1537 74.1742C74.4115 73.9809 74.5888 73.8681 74.6855 73.8358C75.4912 73.3846 76.3613 72.8851 77.2959 72.3372C78.2628 71.7571 79.1974 71.2576 80.0998 70.8386C81.0344 70.3874 81.8562 70.1135 82.5652 70.0168C82.6297 69.5979 82.8553 69.0339 83.242 68.3249C83.6287 67.6158 83.9349 67.0357 84.1605 66.5846C84.1927 66.5201 84.2249 66.4234 84.2572 66.2945C84.3216 66.1656 84.4022 66.0367 84.4989 65.9078C84.66 65.5855 84.7406 65.4243 84.7406 65.4243L84.6439 65.086C84.6761 65.0537 84.7245 64.9732 84.7889 64.8442C84.8212 64.812 84.8373 64.7476 84.8373 64.6509C84.8373 64.5864 84.8212 64.5542 84.7889 64.5542C84.7245 64.5542 84.6923 64.4736 84.6923 64.3125C84.6923 63.9257 84.7728 63.5229 84.934 63.1039H85.0306C85.4496 62.5238 85.7558 61.8148 85.9491 60.9769C86.0781 60.2679 86.4003 59.6072 86.916 58.9949L86.7226 58.6081C86.7548 58.5759 86.8193 58.447 86.916 58.2214C87.0127 57.9958 87.1094 57.7702 87.206 57.5446C87.3349 57.319 87.4155 57.2062 87.4477 57.2062C87.5122 56.9806 87.5605 56.61 87.5928 56.0944C87.625 55.5787 87.6411 55.1759 87.6411 54.8858C87.6411 53.081 87.061 51.8241 85.9008 51.1151C84.7406 50.3739 83.2903 50.0033 81.55 50.0033C80.1642 50.0033 78.7784 50.1483 77.3926 50.4383C76.0391 50.7284 74.7016 51.099 73.3802 51.5502C73.2836 51.7113 73.0096 52.0175 72.5584 52.4687C72.1395 52.8877 71.656 53.355 71.1082 53.8706C70.5603 54.3863 70.0447 54.8697 69.5612 55.3209C69.11 55.7398 68.8039 56.0299 68.6427 56.191C68.7072 56.1588 68.7878 56.1427 68.8844 56.1427C68.9811 56.1427 69.0617 56.1427 69.1262 56.1427H69.6096C70.5764 56.1427 71.4788 56.4166 72.3167 56.9645C72.5423 56.9645 72.6229 57.0451 72.5584 57.2062C72.6229 57.2384 72.639 57.319 72.6068 57.4479L72.6551 57.5446C72.6551 57.6413 72.6068 57.7702 72.5101 57.9313C72.4456 58.0925 72.349 58.1731 72.22 58.1731C72.0589 58.1731 71.9622 58.1086 71.93 57.9797H71.8816L71.785 58.0764C71.656 58.0764 71.4143 58.1569 71.0598 58.3181C70.7053 58.447 70.4797 58.5114 70.383 58.5114H70.1413C69.5612 58.5114 68.9489 58.8176 68.3043 59.4299C67.692 60.0423 67.2086 60.574 66.8541 61.0252C65.7583 62.3466 64.727 63.6679 63.7602 64.9893C62.8256 66.3106 61.9393 67.7125 61.1014 69.195C60.7469 69.8718 60.3763 70.5486 59.9895 71.2254C59.6028 71.8699 59.1999 72.5145 58.781 73.1591C57.9431 74.5126 57.2663 75.8984 56.7506 77.3165C56.4928 78.0899 56.1866 78.9279 55.8321 79.8302C55.4776 80.7326 55.1715 81.6028 54.9136 82.4407C54.688 83.2786 54.5752 84.0199 54.5752 84.6644C54.5752 85.0189 54.6236 85.3573 54.7203 85.6796C54.8169 86.0019 54.9942 86.2758 55.252 86.5014C55.3165 86.5659 55.3809 86.6303 55.4454 86.6948C55.5421 86.7592 55.6549 86.8237 55.7838 86.8882C56.0094 86.9204 56.1544 87.0493 56.2189 87.2749C56.38 87.1782 56.5895 87.0654 56.8473 86.9365C57.1374 86.7754 57.3952 86.6948 57.6208 86.6948C57.7819 86.6948 57.8625 86.7754 57.8625 86.9365C57.8625 87.1621 57.7336 87.4038 57.4757 87.6616C57.2502 87.9195 57.0568 88.1128 56.8956 88.2417C56.5734 88.4996 56.2511 88.6285 55.9288 88.6285C55.6388 88.6607 55.3165 88.6768 54.962 88.6768C54.8975 88.7413 54.7847 88.7735 54.6236 88.7735ZM47.5657 65.4243H47.7107L47.8074 65.3277C47.9685 65.2954 48.1619 65.1987 48.3875 65.0376C48.742 64.812 49.1126 64.6025 49.4993 64.4092C49.8861 64.1836 50.2889 63.9902 50.7079 63.8291C51.5458 63.4746 52.3193 63.0878 53.0283 62.6689C54.6719 61.6376 56.3317 60.6385 58.0075 59.6717C59.6834 58.7048 61.4398 57.9152 63.2768 57.3029C63.5024 57.0451 63.7119 56.7873 63.9052 56.5294C64.1308 56.2716 64.3564 56.0299 64.582 55.8043C64.8076 55.5465 65.0171 55.3048 65.2105 55.0792C65.4361 54.8213 65.6617 54.5635 65.8872 54.3057C65.2749 54.4991 64.6787 54.7247 64.0986 54.9825C63.5507 55.2081 62.9867 55.4498 62.4066 55.7076L61.1014 56.2394L60.8113 56.3844L60.618 56.4327H60.5696C60.3118 56.4327 59.9734 56.5778 59.5545 56.8678C59.1677 57.1579 58.781 57.4479 58.3942 57.738C58.0397 58.028 57.7658 58.1731 57.5724 58.1731C57.5724 58.1408 57.5724 58.1086 57.5724 58.0764C57.6047 58.0441 57.6369 57.9958 57.6691 57.9313C57.4757 58.028 57.0729 58.2375 56.4606 58.5598C55.8805 58.8498 55.2359 59.1721 54.5269 59.5266C53.8501 59.8811 53.2378 60.2195 52.6899 60.5418C52.3998 60.7029 51.997 60.9285 51.4814 61.2186C50.9657 61.5086 50.4339 61.8148 49.8861 62.1371C49.3382 62.4271 48.8709 62.7011 48.4842 62.9589C48.1296 63.2167 47.9524 63.394 47.9524 63.4907L48.0007 63.539C48.0007 63.5712 47.8557 63.7163 47.5657 63.9741C47.2756 64.1997 46.9694 64.4253 46.6472 64.6509C46.3571 64.8765 46.1799 65.0054 46.1154 65.0376C46.1476 65.0376 46.2765 65.0698 46.5021 65.1343C46.76 65.1665 47.0017 65.2149 47.2273 65.2793C47.4529 65.3115 47.5657 65.3599 47.5657 65.4243ZM71.1565 57.0128C71.3177 57.0128 71.4466 56.9645 71.5433 56.8678C71.511 56.8678 71.4143 56.8195 71.2532 56.7228C71.0598 56.6261 70.9309 56.5778 70.8665 56.5778V56.8195C70.8342 56.8195 70.8181 56.8356 70.8181 56.8678C70.8181 56.9001 70.8665 56.9323 70.9631 56.9645C71.0598 56.9967 71.1243 57.0128 71.1565 57.0128ZM53.8984 85.0512C53.8984 86.0825 53.979 86.3725 54.1402 85.9213C54.3013 85.4379 54.3335 84.6 54.2368 83.4075C54.2046 82.6663 54.3174 81.8606 54.5752 80.9904C54.8331 80.1203 55.0909 79.3468 55.3487 78.67C55.5098 78.2511 55.671 77.8321 55.8321 77.4131C55.9933 76.9942 56.1383 76.5752 56.2672 76.1563C56.4283 75.7373 56.5895 75.3183 56.7506 74.8994C56.9118 74.4804 57.0729 74.0614 57.234 73.6425C58.072 71.8699 59.071 70.1296 60.2312 68.4215C61.4237 66.7135 62.6 65.086 63.7602 63.539C64.1147 63.0878 64.4692 62.6205 64.8237 62.1371C65.1782 61.6537 65.5327 61.1864 65.8872 60.7352C66.2418 60.284 66.6124 59.8489 66.9991 59.4299C67.3858 59.011 67.7887 58.592 68.2077 58.1731L67.8209 58.1247C67.7565 58.1569 67.6114 58.1731 67.3858 58.1731C67.3214 58.1731 67.2408 58.1731 67.1441 58.1731C67.0797 58.1408 66.9991 58.1086 66.9024 58.0764C66.7091 58.1408 66.6446 58.2053 66.7091 58.2697C66.7091 58.3342 66.5963 58.3825 66.3707 58.4148C66.0162 58.866 65.6616 59.3171 65.3071 59.7683C64.9526 60.2195 64.5981 60.6707 64.2436 61.1219C63.5346 62.0243 62.8578 62.9911 62.2133 64.0224C62.1166 64.1836 61.8426 64.5703 61.3914 65.1826C60.9725 65.7627 60.5052 66.4073 59.9895 67.1163C59.4739 67.8253 59.0227 68.486 58.636 69.0983C58.2492 69.6784 58.0559 70.0491 58.0559 70.2102C58.0559 70.2424 57.9431 70.4519 57.7175 70.8386C57.5241 71.2254 57.3307 71.6121 57.1374 71.9988C56.944 72.3856 56.8312 72.5789 56.799 72.5789C56.7345 72.8045 56.6378 73.0463 56.5089 73.3041C56.4122 73.5297 56.2994 73.8036 56.1705 74.1259C55.8805 74.7382 55.7354 75.2539 55.7354 75.6728L55.252 76.4946C55.252 77.0425 55.1876 77.5098 55.0587 77.8966C54.9942 78.1222 54.9297 78.3478 54.8653 78.5733C54.8008 78.7667 54.7364 78.9762 54.6719 79.2018C54.6397 79.3307 54.5913 79.4918 54.5269 79.6852C54.4624 79.8464 54.398 80.0397 54.3335 80.2653C54.1402 80.6843 54.0435 81.0549 54.0435 81.3772C54.0435 81.6028 54.0435 81.8445 54.0435 82.1023C54.0435 82.3279 54.0274 82.5535 53.9951 82.7791C53.9629 83.0047 53.9307 83.2464 53.8984 83.5042C53.8984 83.7298 53.8984 83.9554 53.8984 84.181V84.3744C53.8662 84.4388 53.8501 84.5194 53.8501 84.6161C53.8501 84.7128 53.8662 84.7772 53.8984 84.8095V85.0512ZM86.3842 61.2186C86.5131 61.2186 86.6259 61.0575 86.7226 60.7352C86.8193 60.4129 86.8676 60.2034 86.8676 60.1067V59.575L86.5292 60.2034C86.4326 60.3646 86.352 60.5257 86.2875 60.6868C86.2553 60.848 86.2392 60.9447 86.2392 60.9769C86.2392 61.0413 86.2875 61.1058 86.3842 61.1703V61.2186ZM85.224 64.4575C85.224 64.4253 85.2401 64.4092 85.2724 64.4092C85.3046 64.4092 85.3368 64.3931 85.369 64.3608C85.4013 64.1997 85.4657 64.0063 85.5624 63.7807C85.6591 63.5551 85.788 63.4584 85.9491 63.4907C85.9814 63.4584 85.9975 63.3456 85.9975 63.1523C85.9975 63.0878 85.9814 62.9911 85.9491 62.8622C85.9169 62.7333 85.8525 62.6527 85.7558 62.6205V62.5722C85.6269 62.5722 85.4818 62.8139 85.3207 63.2973C85.1596 63.7807 85.079 64.0869 85.079 64.2158C85.079 64.3769 85.1273 64.4575 85.224 64.4575ZM63.0834 86.1147C63.3412 86.1147 63.5829 86.0663 63.8085 85.9697C63.9697 85.8085 64.0986 85.6635 64.1953 85.5346C64.3242 85.4057 64.4531 85.2606 64.582 85.0995C64.582 85.0995 64.582 85.1156 64.582 85.1479C64.582 85.1479 64.5981 85.164 64.6304 85.1962C64.6304 85.2606 64.5981 85.3251 64.5337 85.3896L65.1621 85.2445L65.0654 84.9061C65.1299 84.9384 65.2427 84.9867 65.4038 85.0512C65.5972 85.0834 65.7261 85.0995 65.7906 85.0995C65.7906 85.0995 65.8872 85.0673 66.0806 85.0028V84.9545L66.274 84.6161L67.1925 84.4227C67.2569 84.3583 67.2569 84.326 67.1925 84.326C67.128 84.326 67.1119 84.3099 67.1441 84.2777L68.256 83.4559H68.3527L68.3043 83.2625H68.4977C68.5299 83.2947 68.5944 83.3109 68.6911 83.3109H68.7394V83.2625L69.2712 82.8274V82.7791L69.4162 82.8758V82.6824C69.5773 82.618 69.7224 82.5535 69.8513 82.489C69.9802 82.3924 70.0124 82.2473 69.948 82.054L71.2532 80.9421C71.7688 80.5231 72.2684 80.3137 72.7518 80.3137C72.8485 80.3137 72.9129 80.2653 72.9452 80.1686C72.9774 80.1042 73.0257 80.0397 73.0902 79.9753C73.0902 79.7497 73.2674 79.4596 73.622 79.1051L74.3954 78.3316V78.235L76.5225 76.2529L76.4741 76.3496L76.5225 76.398V76.3013L76.7642 75.9629L76.8125 76.0112L77.586 75.4311V74.9477C77.8116 74.6254 78.1339 74.3676 78.5528 74.1742C79.004 73.9486 79.423 73.7392 79.8097 73.5458C80.1965 73.3524 80.3898 73.0946 80.3898 72.7723H80.2931C80.0031 72.7723 79.5841 72.9012 79.0362 73.1591C78.5206 73.3846 78.1339 73.578 77.876 73.7392C77.3282 73.997 76.7964 74.2709 76.2808 74.561C75.7651 74.8188 75.2495 75.1088 74.7338 75.4311C74.4115 75.6245 73.912 75.9468 73.2352 76.398C72.5907 76.8169 71.8978 77.252 71.1565 77.7032C70.4475 78.1544 69.7868 78.5411 69.1745 78.8634C68.5944 79.1535 68.1915 79.2824 67.9659 79.2501L68.0143 79.3468L67.8693 79.5402L67.7726 79.6852C67.7404 79.6852 67.6759 79.6369 67.5792 79.5402V79.6369C67.3214 79.8625 67.0636 80.0881 66.8057 80.3137C66.5479 80.507 66.2901 80.7165 66.0323 80.9421L64.437 82.2473L64.5337 82.5857L64.0019 82.7791C64.0019 82.8436 63.9697 82.9402 63.9052 83.0691C63.873 83.1336 63.8247 83.1981 63.7602 83.2625C63.728 83.2947 63.6957 83.3431 63.6635 83.4075C63.3412 83.5687 63.0673 83.7782 62.8417 84.036C62.6161 84.2616 62.4066 84.5194 62.2133 84.8095V84.9061C62.2133 85.2284 62.2616 85.5185 62.3583 85.7763C62.4872 86.0019 62.7289 86.1147 63.0834 86.1147ZM100.185 87.8067C97.9291 87.8067 95.8988 87.3555 94.094 86.4531C92.3215 85.5185 90.9034 84.2294 89.8399 82.5857C88.7764 80.9099 88.2446 78.9601 88.2446 76.7364C88.2446 74.6093 88.7603 72.7079 89.7916 71.032C90.8229 69.3562 92.2087 68.0348 93.949 67.068C95.6893 66.0689 97.6391 65.5694 99.7983 65.5694C101.861 65.5694 103.746 66.0689 105.454 67.068C107.162 68.0348 108.532 69.34 109.563 70.9837C110.627 72.6273 111.159 74.4965 111.159 76.5913V77.9449H91.7736V74.4643H106.47C106.212 73.0463 105.47 71.8538 104.246 70.887C103.021 69.8879 101.555 69.3884 99.8467 69.3884C98.4609 69.3884 97.2523 69.7107 96.221 70.3552C95.222 70.9676 94.4485 71.8216 93.9006 72.9173C93.3528 73.9809 93.0788 75.2055 93.0788 76.5913C93.0788 78.0738 93.385 79.3629 93.9973 80.4587C94.6419 81.5544 95.4637 82.4085 96.4628 83.0208C97.4941 83.6009 98.5898 83.891 99.75 83.891C100.749 83.891 101.668 83.7782 102.505 83.5526C103.376 83.2947 104.149 82.9564 104.826 82.5374C105.535 82.1184 106.131 81.6028 106.615 80.9904L109.708 83.6009C109.032 84.4388 108.178 85.1801 107.146 85.8246C106.115 86.437 105.003 86.9204 103.811 87.2749C102.618 87.6294 101.41 87.8067 100.185 87.8067ZM123.009 88C121.236 88 119.673 87.7422 118.32 87.2266C116.966 86.7109 115.87 85.9213 115.032 84.8578C114.227 83.7943 113.727 82.4407 113.534 80.7971H118.32C118.481 81.7961 118.803 82.5696 119.287 83.1175C119.802 83.6331 120.398 83.9876 121.075 84.181C121.752 84.3744 122.461 84.4711 123.202 84.4711C124.524 84.4711 125.539 84.2294 126.248 83.7459C126.957 83.2303 127.311 82.489 127.311 81.5222C127.311 80.8454 127.021 80.2814 126.441 79.8302C125.893 79.3468 125.088 78.9601 124.024 78.67C123.412 78.4767 122.687 78.2994 121.849 78.1383C121.011 77.9449 120.173 77.7354 119.335 77.5098C118.529 77.252 117.804 76.962 117.16 76.6397C116.289 76.1563 115.58 75.56 115.032 74.851C114.517 74.1098 114.259 73.2235 114.259 72.1922C114.259 70.742 114.614 69.5334 115.323 68.5666C116.064 67.5997 117.063 66.8746 118.32 66.3912C119.609 65.9078 121.091 65.6661 122.767 65.6661C125.023 65.6661 126.925 66.1172 128.472 67.0196C130.051 67.922 131.05 69.5173 131.469 71.8055H126.683C126.522 71.1287 126.248 70.5969 125.861 70.2102C125.474 69.7912 125.007 69.5173 124.459 69.3884C123.911 69.2272 123.299 69.1467 122.622 69.1467C121.752 69.1467 120.946 69.34 120.205 69.7268C119.464 70.1135 119.093 70.7258 119.093 71.5638C119.093 72.4017 119.448 73.014 120.157 73.4008C120.866 73.7553 121.639 74.0453 122.477 74.2709C122.961 74.3676 123.557 74.4965 124.266 74.6577C125.007 74.8188 125.764 75.0122 126.538 75.2378C127.344 75.4311 128.053 75.6889 128.665 76.0112C129.761 76.4946 130.615 77.1714 131.227 78.0416C131.839 78.9117 132.146 79.9753 132.146 81.2322C132.146 82.8436 131.743 84.1488 130.937 85.1479C130.131 86.1147 129.036 86.8398 127.65 87.3232C126.296 87.7744 124.749 88 123.009 88ZM137.151 87.4199V66.1495H141.792V87.4199H137.151ZM139.472 62.6689C138.666 62.6689 137.989 62.3949 137.441 61.847C136.893 61.2669 136.619 60.5902 136.619 59.8167C136.619 59.011 136.893 58.3342 137.441 57.7863C137.989 57.2384 138.666 56.9645 139.472 56.9645C140.245 56.9645 140.906 57.2384 141.454 57.7863C142.034 58.3342 142.324 59.011 142.324 59.8167C142.324 60.5902 142.034 61.2669 141.454 61.847C140.906 62.3949 140.245 62.6689 139.472 62.6689ZM158.482 99.5054C157.097 99.5054 155.775 99.2798 154.518 98.8286C153.294 98.3774 152.182 97.749 151.183 96.9433C150.184 96.1376 149.378 95.1707 148.766 94.0428C148.153 92.947 147.767 91.7385 147.605 90.4171H152.295C152.649 91.9641 153.407 93.1887 154.567 94.0911C155.727 94.9935 156.984 95.4447 158.337 95.4447C159.659 95.4447 160.819 95.1224 161.818 94.4778C162.849 93.8333 163.655 92.9631 164.235 91.8674C164.847 90.8039 165.154 89.6437 165.154 88.3868V84.181C164.702 84.8578 164.09 85.4862 163.317 86.0663C162.543 86.6142 161.657 87.0654 160.658 87.4199C159.691 87.7422 158.611 87.9033 157.419 87.9033C155.421 87.9033 153.616 87.3877 152.005 86.3564C150.425 85.3251 149.185 83.9715 148.282 82.2957C147.412 80.5876 146.977 78.7506 146.977 76.7847C146.977 74.8188 147.412 72.9979 148.282 71.3221C149.185 69.614 150.425 68.2443 152.005 67.213C153.616 66.1817 155.421 65.6661 157.419 65.6661C158.611 65.6661 159.691 65.8433 160.658 66.1978C161.657 66.5201 162.527 66.9713 163.268 67.5514C164.042 68.1315 164.67 68.7438 165.154 69.3884V66.1495H169.843V88.0967C169.843 90.2238 169.327 92.1413 168.296 93.8494C167.297 95.5897 165.927 96.9594 164.187 97.9585C162.479 98.9898 160.577 99.5054 158.482 99.5054ZM158.482 83.6976C159.772 83.6976 160.916 83.3753 161.915 82.7308C162.914 82.0862 163.703 81.2322 164.283 80.1686C164.864 79.1051 165.154 77.9771 165.154 76.7847C165.154 75.5278 164.864 74.3837 164.283 73.3524C163.703 72.3211 162.914 71.4832 161.915 70.8386C160.916 70.1619 159.772 69.8235 158.482 69.8235C157.226 69.8235 156.081 70.1457 155.05 70.7903C154.051 71.4349 153.261 72.2889 152.681 73.3524C152.101 74.3837 151.811 75.5278 151.811 76.7847C151.811 78.0094 152.101 79.1535 152.681 80.217C153.261 81.2805 154.051 82.1345 155.05 82.7791C156.081 83.3914 157.226 83.6976 158.482 83.6976ZM176.322 87.4199V66.1495H180.963V69.4367C181.672 68.3732 182.59 67.4869 183.718 66.7779C184.879 66.0367 186.216 65.6661 187.731 65.6661C189.471 65.6661 190.921 66.0206 192.082 66.7296C193.274 67.4386 194.16 68.4538 194.74 69.7751C195.32 71.0965 195.611 72.6756 195.611 74.5126V87.4199H190.97V74.5126C190.97 73.6747 190.841 72.9012 190.583 72.1922C190.357 71.4832 189.971 70.9192 189.423 70.5002C188.875 70.0813 188.118 69.8718 187.151 69.8718C185.765 69.8718 184.605 70.2424 183.67 70.9837C182.768 71.6927 182.091 72.6595 181.64 73.8842C181.189 75.1088 180.963 76.4624 180.963 77.9449V87.4199H176.322Z" fill="black"/>
</svg>
