<svg width="145" height="31" viewBox="0 0 145 31" fill="none" xmlns="http://www.w3.org/2000/svg">
<path d="M80.4683 30.2354C79.6128 30.2354 78.8241 30.0157 78.102 29.5762C77.3879 29.1367 76.8149 28.552 76.3833 27.8221C75.9595 27.0844 75.7476 26.276 75.7476 25.397V24.2904C75.7476 24.2041 75.7868 24.1609 75.8653 24.1609H78.5729C78.6357 24.1609 78.6671 24.2041 78.6671 24.2904V25.397C78.6671 25.9229 78.8437 26.3781 79.1969 26.7626C79.55 27.1393 79.9738 27.3277 80.4683 27.3277C80.9706 27.3277 81.3983 27.1354 81.7515 26.7508C82.1046 26.3584 82.2812 25.9072 82.2812 25.397C82.2812 24.8084 81.8967 24.2944 81.1275 23.8549C81.002 23.7764 80.8371 23.6822 80.6331 23.5723C80.4369 23.4546 80.2014 23.3212 79.9268 23.1721C79.6521 23.023 79.3852 22.8778 79.1262 22.7365C78.8672 22.5874 78.6161 22.4461 78.3728 22.3127C77.4938 21.7947 76.8385 21.1472 76.4068 20.3703C75.983 19.5855 75.7711 18.7065 75.7711 17.7333C75.7711 16.8386 75.9909 16.0302 76.4304 15.3082C76.8699 14.594 77.4428 14.0289 78.1491 13.613C78.8633 13.1892 79.6364 12.9773 80.4683 12.9773C81.3237 12.9773 82.1086 13.1892 82.8227 13.613C83.5369 14.0446 84.1059 14.6175 84.5297 15.3317C84.9614 16.0459 85.1772 16.8464 85.1772 17.7333V19.711C85.1772 19.7738 85.1458 19.8052 85.083 19.8052H82.3754C82.3126 19.8052 82.2812 19.7738 82.2812 19.711L82.2577 17.7333C82.2577 17.1682 82.0811 16.7091 81.7279 16.3559C81.3747 16.0028 80.9549 15.8262 80.4683 15.8262C79.9738 15.8262 79.55 16.0145 79.1969 16.3912C78.8437 16.768 78.6671 17.2153 78.6671 17.7333C78.6671 18.2591 78.777 18.6986 78.9967 19.0518C79.2243 19.4049 79.6364 19.7424 80.2328 20.0642C80.2956 20.0956 80.4408 20.1741 80.6684 20.2996C80.896 20.4252 81.1471 20.5665 81.4218 20.7234C81.7044 20.8726 81.9594 21.0099 82.187 21.1355C82.4146 21.2532 82.552 21.3238 82.5991 21.3474C83.3996 21.7947 84.0314 22.3441 84.4944 22.9955C84.9653 23.6469 85.2007 24.4474 85.2007 25.397C85.2007 26.3153 84.9888 27.1393 84.565 27.8692C84.1334 28.5991 83.5605 29.1759 82.8463 29.5997C82.1321 30.0235 81.3394 30.2354 80.4683 30.2354ZM92.0169 30H89.2975C89.2269 30 89.1915 29.9608 89.1915 29.8823V16.1322H86.0601C85.9816 16.1322 85.9424 16.093 85.9424 16.0145L85.9659 13.3187C85.9659 13.2559 85.9973 13.2245 86.0601 13.2245H95.219C95.3053 13.2245 95.3484 13.2559 95.3484 13.3187V16.0145C95.3484 16.093 95.3171 16.1322 95.2543 16.1322H92.0875L92.1111 29.8823C92.1111 29.9608 92.0797 30 92.0169 30ZM100.964 30.2354C100.116 30.2354 99.3314 30.0157 98.6094 29.5762C97.8873 29.1367 97.3105 28.5481 96.8788 27.8104C96.455 27.0648 96.2431 26.2525 96.2431 25.3735L96.2902 13.3187C96.2902 13.2559 96.3216 13.2245 96.3844 13.2245H99.092C99.1548 13.2245 99.1862 13.2559 99.1862 13.3187V25.3735C99.1862 25.915 99.3589 26.3781 99.7042 26.7626C100.05 27.1393 100.469 27.3277 100.964 27.3277C101.482 27.3277 101.913 27.1393 102.259 26.7626C102.604 26.3781 102.777 25.915 102.777 25.3735V13.3187C102.777 13.2559 102.808 13.2245 102.871 13.2245H105.579C105.641 13.2245 105.673 13.2559 105.673 13.3187L105.72 25.3735C105.72 26.2603 105.508 27.0765 105.084 27.8221C104.652 28.5599 104.08 29.1485 103.365 29.588C102.651 30.0196 101.851 30.2354 100.964 30.2354ZM112.053 29.9765L107.733 30C107.654 30 107.615 29.9608 107.615 29.8823L107.662 13.3187C107.662 13.2559 107.694 13.2245 107.756 13.2245L112.265 13.2009C113.16 13.1774 113.968 13.3815 114.69 13.8131C115.42 14.2448 116.001 14.8294 116.433 15.5672C116.872 16.2971 117.092 17.1054 117.092 17.9923V24.9144C117.092 25.8405 116.868 26.6881 116.421 27.4572C115.966 28.2185 115.361 28.8267 114.608 29.2819C113.854 29.7292 113.003 29.9608 112.053 29.9765ZM112.265 16.0852L110.582 16.1087L110.558 27.0334H112.053C112.65 27.0334 113.152 26.8254 113.56 26.4095C113.968 25.9935 114.172 25.4951 114.172 24.9144V17.9687C114.172 17.4586 113.984 17.0152 113.607 16.6385C113.231 16.2539 112.783 16.0695 112.265 16.0852ZM121.836 30H119.105C119.026 30 118.987 29.9608 118.987 29.8823L119.011 13.3187C119.011 13.2559 119.042 13.2245 119.105 13.2245H121.813C121.875 13.2245 121.907 13.2559 121.907 13.3187L121.93 29.8823C121.93 29.9608 121.899 30 121.836 30ZM128.511 30.2354C127.656 30.2354 126.867 30.0157 126.145 29.5762C125.431 29.1367 124.854 28.552 124.414 27.8221C123.983 27.0844 123.767 26.276 123.767 25.397L123.79 17.7568C123.79 16.8621 124.006 16.0577 124.438 15.3435C124.862 14.6215 125.434 14.0446 126.157 13.613C126.879 13.1735 127.663 12.9537 128.511 12.9537C129.39 12.9537 130.179 13.1696 130.877 13.6012C131.584 14.0329 132.149 14.6136 132.572 15.3435C133.004 16.0655 133.22 16.87 133.22 17.7568L133.243 25.397C133.243 26.276 133.032 27.0805 132.608 27.8104C132.176 28.5481 131.603 29.1367 130.889 29.5762C130.175 30.0157 129.382 30.2354 128.511 30.2354ZM128.511 27.3277C128.998 27.3277 129.421 27.1315 129.782 26.7391C130.143 26.3388 130.324 25.8915 130.324 25.397L130.3 17.7568C130.3 17.2231 130.132 16.7719 129.794 16.403C129.457 16.0341 129.029 15.8497 128.511 15.8497C128.017 15.8497 127.593 16.0302 127.24 16.3912C126.886 16.7523 126.71 17.2074 126.71 17.7568V25.397C126.71 25.9229 126.886 26.3781 127.24 26.7626C127.593 27.1393 128.017 27.3277 128.511 27.3277ZM139.165 30.2354C138.309 30.2354 137.521 30.0157 136.799 29.5762C136.084 29.1367 135.512 28.552 135.08 27.8221C134.656 27.0844 134.444 26.276 134.444 25.397V24.2904C134.444 24.2041 134.483 24.1609 134.562 24.1609H137.27C137.332 24.1609 137.364 24.2041 137.364 24.2904V25.397C137.364 25.9229 137.54 26.3781 137.893 26.7626C138.247 27.1393 138.67 27.3277 139.165 27.3277C139.667 27.3277 140.095 27.1354 140.448 26.7508C140.801 26.3584 140.978 25.9072 140.978 25.397C140.978 24.8084 140.593 24.2944 139.824 23.8549C139.699 23.7764 139.534 23.6822 139.33 23.5723C139.134 23.4546 138.898 23.3212 138.623 23.1721C138.349 23.023 138.082 22.8778 137.823 22.7365C137.564 22.5874 137.313 22.4461 137.069 22.3127C136.19 21.7947 135.535 21.1472 135.103 20.3703C134.68 19.5855 134.468 18.7065 134.468 17.7333C134.468 16.8386 134.688 16.0302 135.127 15.3082C135.567 14.594 136.139 14.0289 136.846 13.613C137.56 13.1892 138.333 12.9773 139.165 12.9773C140.02 12.9773 140.805 13.1892 141.519 13.613C142.234 14.0446 142.803 14.6175 143.226 15.3317C143.658 16.0459 143.874 16.8464 143.874 17.7333V19.711C143.874 19.7738 143.842 19.8052 143.78 19.8052H141.072C141.009 19.8052 140.978 19.7738 140.978 19.711L140.954 17.7333C140.954 17.1682 140.778 16.7091 140.425 16.3559C140.071 16.0028 139.651 15.8262 139.165 15.8262C138.67 15.8262 138.247 16.0145 137.893 16.3912C137.54 16.768 137.364 17.2153 137.364 17.7333C137.364 18.2591 137.474 18.6986 137.693 19.0518C137.921 19.4049 138.333 19.7424 138.929 20.0642C138.992 20.0956 139.137 20.1741 139.365 20.2996C139.593 20.4252 139.844 20.5665 140.118 20.7234C140.401 20.8726 140.656 21.0099 140.884 21.1355C141.111 21.2532 141.249 21.3238 141.296 21.3474C142.096 21.7947 142.728 22.3441 143.191 22.9955C143.662 23.6469 143.897 24.4474 143.897 25.397C143.897 26.3153 143.685 27.1393 143.262 27.8692C142.83 28.5991 142.257 29.1759 141.543 29.5997C140.829 30.0235 140.036 30.2354 139.165 30.2354Z" fill="#1D1D1D"/>
<path d="M23.584 29.4201V8.87256H43.898V17.7453H38.0606V23.8162H32.4568V29.4201H23.584Z" fill="#777777"/>
<path d="M20.314 8.87256H0V29.1866H20.314V23.8162H12.3752V21.9482H20.314V16.8114H12.3752V14.4764H20.314V8.87256Z" fill="#777777"/>
<path d="M47.3984 29.4201V8.87256H59.0731C61.8751 9.65087 67.5256 12.7953 67.7124 19.1463C67.8992 25.4974 62.0307 28.6417 59.0731 29.4201H47.3984Z" fill="#777777"/>
</svg>
