<svg width="366" height="367" viewBox="0 0 366 367" fill="none" xmlns="http://www.w3.org/2000/svg">
<path d="M167.5 93.4998C172.333 94.4998 182.5 95.1998 184.5 89.9998C187 83.4998 187 74.4998 176 74.9998C165 75.4998 138.5 102 150 112.5C161.5 123 189.5 97.4999 190 90.9999C190.5 84.4999 195.5 61.4999 180.5 64.4999C165.5 67.4999 157 100 159 109.5C161 119 170.5 205 110.5 241C25.5 292 3 367 2 381.5" stroke="#DADADA" stroke-width="4"/>
<path d="M243 77.6953L219 52.1953C214.283 42.1321 204.67 20.7949 201.919 11.6953M243 77.6953C236.2 85.6953 239.5 97.0286 242 101.695L247 102.154M243 77.6953L251.5 78.2028M276.5 79.6953C282.833 80.5286 295.8 82.4953 297 83.6953C297.7 84.3957 299.927 84.9871 302 86.4875M276.5 79.6953L269.5 79.2774M276.5 79.6953L272.5 104.496M251.5 78.2028C252.333 84.1731 252.6 97.3218 247 102.154M251.5 78.2028L269.5 79.2774M247 102.154L263.5 103.67M302 86.4875C304.367 88.2004 306.533 91.0981 306 96.6953C305.2 105.095 295.667 106.529 291 106.195L272.5 104.496M302 86.4875C303.167 81.0568 306.365 72.1497 314 71.1953C322 70.1953 324.5 73.6953 325.5 79.6953M325.5 79.6953C331 80.362 339.9 83.6953 331.5 91.6953C330.892 91.7457 330.219 91.7859 329.5 91.8111M325.5 79.6953C324.5 79.5499 310.5 78.2028 312 85.6953C312.92 90.2927 320.371 91.6601 326.5 91.8233M329.5 91.8111L330 98.1953L319 95.6953C319.488 97.6459 321.288 100.909 324 103.181M329.5 91.8111C328.565 91.8438 327.552 91.8513 326.5 91.8233M345 73.1953C343 106.195 335.487 105.35 331 105.695C328.304 105.903 325.923 104.791 324 103.181M324 103.181C320.5 105.185 312.6 109.095 309 108.695C304.5 108.195 318.5 110.695 314 119.195C310.4 125.995 288.5 140.695 278 147.195L311 138.195M322 91.1953V84.6953M326.5 91.8233V85.1953M143 91.6953C137.5 93.6953 128 103.695 125 107.695C122 111.695 114 122.195 115.5 119.695C116.7 117.695 115 113.529 114 111.695C110 111.195 107 111.195 105.5 111.695C107.5 106.195 106 103.695 99.5 103.695L142 69.1953C146.706 66.0579 150.694 68.2523 153 70.7118M143 91.6953C147.4 90.0953 175.5 112.695 189 124.195H240L270.5 132.695L290 116.695L256 144.695C250.5 150.195 249.5 164.695 267.5 164.695L309 153.695L311 166.195H316.5V152.695L324.5 164.695L330 160.695L320.5 148.195L330 153.695C333.5 154.695 340.5 155.295 340.5 149.695C340.5 144.095 333.5 139.695 330 138.195L329.5 137.695M143 91.6953C141.8 82.0953 149.167 73.7063 153 70.7118M314 134.695C314 130.295 319.5 126.695 321 129.195L329 137.195M329 137.195L324.5 141.695M329 137.195L329.5 137.695M324.5 141.695C323.167 140.695 320.6 138.095 321 135.695M324.5 141.695C326 143.195 329.4 146.095 331 145.695M329.5 137.695L334 132.195M334 132.195C335.667 133.029 340 133.595 344 129.195C349 123.695 359.5 115.195 362.5 108.695C364.228 104.952 364 98.2101 356 100.695C349.6 102.683 337.667 118.524 332.5 126.195C332.167 127.862 332 131.395 334 132.195ZM269.5 79.2774L263.5 103.67M263.5 103.67L272.5 104.496M153 70.7118C153.634 71.388 154.141 72.0843 154.5 72.6953C163.167 80.9271 182.6 97.5516 191 98.1953L232.5 97.6953L199 66.1953C198.053 65.7218 186.344 27.1321 180.434 22.1953M201.919 11.6953C201.754 11.1497 201.613 10.648 201.5 10.1954C199.5 2.19543 193.333 1.52876 190.5 2.19543L135.5 8.69543C137.667 10.0287 142 13.0953 142 14.6953C142 16.2953 138.667 20.362 137 22.1953C139.5 21.6953 144.9 20.9953 146.5 22.1953C148.5 23.6953 147.5 32.6953 147 34.1953C146.5 35.6953 150 31.1953 156 28.1953C162 25.1953 174 20.6953 179.5 21.6953C179.791 21.7483 180.104 21.9191 180.434 22.1953M201.919 11.6953C196.235 11.6953 183.982 13.7953 180.434 22.1953" stroke="black" stroke-width="4"/>
<path d="M168.5 75.5C166.5 78.5 162.4 85.1 162 87.5C161.5 90.5 158 103.5 158.5 108.5" stroke="#DADADA" stroke-width="4"/>
</svg>
