<svg width="347" height="430" viewBox="0 0 347 430" fill="none" xmlns="http://www.w3.org/2000/svg">
<path d="M82.5 194L73 145H293.5L267.5 192L274 275.5L240.5 265L197.5 417L195 406L182 370L179.5 353L150 332.5L153 296L150 292.5L135.5 288.5L116 209L82.5 194Z" fill="#DADADA"/>
<path d="M209.388 324.741C207.796 324.247 206.204 323.753 204.612 323.259C204.487 323.75 204.362 324.241 204.237 324.732C201.985 333.571 199.732 342.41 197.48 351.249C197.355 351.74 197.23 352.231 197.105 352.722C197.702 352.907 198.298 353.093 198.895 353.278C199.07 352.802 199.245 352.327 199.42 351.851C202.568 343.29 205.715 334.729 208.863 326.168C209.038 325.692 209.213 325.217 209.388 324.741Z" fill="black"/>
<path d="M195.23 261.643C193.566 261.548 191.902 261.453 190.238 261.357C190.235 261.864 190.232 262.371 190.229 262.878C190.177 271.999 190.126 281.12 190.074 290.241C190.071 290.748 190.068 291.255 190.065 291.762C190.689 291.797 191.313 291.833 191.937 291.869C191.992 291.365 192.047 290.861 192.102 290.357C193.089 281.29 194.077 272.222 195.065 263.154C195.12 262.65 195.175 262.147 195.23 261.643Z" fill="black"/>
<path d="M207 270.5C206.107 272.11 205.222 273.724 204.345 275.341C199.295 284.648 194.498 294.067 189.953 303.597L193.397 306.247C198.152 302.668 202.851 299.02 207.496 295.305C208.685 294.354 209.87 293.398 211.051 292.439L207.137 289.737C202.642 304.027 198.675 318.488 195.238 333.12C194.818 334.91 194.405 336.704 194 338.5C194.722 336.806 195.436 335.11 196.142 333.411C201.912 319.533 207.152 305.483 211.863 291.263L214.38 283.383L207.949 288.561C206.753 289.503 205.561 290.449 204.373 291.4C199.728 295.116 195.138 298.9 190.603 302.753L194.047 305.403C198.022 295.622 201.744 285.729 205.214 275.724C205.817 273.986 206.412 272.245 207 270.5Z" fill="black"/>
<path d="M153 210.5C152.397 211.751 151.802 213.004 151.215 214.26C145.931 225.566 141.287 237.09 137.281 248.831C136.898 249.952 136.522 251.074 136.151 252.199L133.456 259.988L140.017 254.964C143.655 252.092 147.234 249.146 150.756 246.126L147.523 243.941C146.054 250.373 144.769 256.856 143.668 263.391C143.437 264.759 143.214 266.128 143 267.5C143.535 266.219 144.063 264.935 144.582 263.65C147.063 257.504 149.362 251.308 151.477 245.059L153.035 238.98L148.244 242.874C144.432 245.52 140.679 248.241 136.983 251.036L140.849 253.801C141.243 252.685 141.631 251.566 142.013 250.446C146.019 238.704 149.386 226.745 152.114 214.567C152.417 213.214 152.713 211.858 153 210.5Z" fill="black"/>
<path d="M221.5 33.4712C218.833 33.4904 216.167 33.5096 213.5 33.5288C213.579 35.1831 213.617 36.9258 213.622 38.6382C212.985 69.1511 207.398 103.01 184.11 125.186C182.797 126.355 181.428 127.461 180 128.5C181.502 127.572 182.957 126.568 184.364 125.494C209.612 104.862 218.182 70.6331 221.217 38.908C221.348 37.1055 221.446 35.2568 221.5 33.4712Z" fill="black"/>
<path d="M128.5 160C129.67 160.233 130.92 160.455 132.111 160.665C143.002 162.555 153.869 163.5 164.753 163.5C175.633 163.5 186.502 162.555 197.4 160.665C198.591 160.455 199.831 160.233 201 160C199.831 159.767 198.591 159.545 197.4 159.335C186.502 157.445 175.633 156.5 164.753 156.5C153.869 156.5 143.002 157.445 132.111 159.335C130.92 159.545 129.67 159.767 128.5 160Z" fill="black"/>
<path d="M64 105.5L159 9V86L218 27.5L294 144.5L267 192L273 275.5L240.5 265L197 416C194.5 405.167 188.5 381.7 184.5 374.5C180.5 367.3 179.833 358.167 180 354.5L149.5 332.5L155 265L149.5 292.5L135 288L117 209L83 195L64 105.5Z" stroke="black" stroke-width="7"/>
<path d="M42.5 103.5C41.6775 103.23 40.8033 102.997 39.9388 102.799C32.1281 101.064 23.6583 101.762 16.1356 105.277C8.63362 108.685 2.22242 115.788 0.836763 123.846C0.66618 124.742 0.564986 125.602 0.5 126.5C1.0058 125.756 1.51296 125.078 2.05073 124.389C6.86596 118.291 12.7507 114.635 19.1212 111.608C25.5162 108.631 32.4408 106.18 39.9574 104.129C40.793 103.907 41.6568 103.696 42.5 103.5Z" fill="black"/>
<path d="M57.5005 114.5C55.3476 114.237 53.1201 114.118 50.9248 114.115C44.6119 114.153 38.1329 114.943 32.0098 117.834C25.898 120.356 20.2809 127.816 21.3958 135.37C22.9383 145.431 31.8122 149.074 38.3748 151.851C57.771 158.719 77.8357 159.223 97.5298 157.545C99.6966 157.299 101.963 157.058 104 156.5C101.906 156.594 99.6685 156.389 97.5158 156.216C78.1034 154.159 58.4636 151.584 40.8919 145.32C34.7753 142.975 28.355 139.401 27.6052 134.631C25.1544 123.872 39.4647 117.545 51.0504 115.439C53.1624 115.028 55.3421 114.704 57.5005 114.5Z" fill="black"/>
<path d="M222.5 158C225.005 158.362 227.628 158.699 230.178 159.006C253.33 161.711 276.664 162.728 300.034 160.916C313.47 159.374 327.297 159.12 340.103 150.49C344.067 147.322 347.995 140.699 345.017 135.156C342.374 130.023 337.751 127.389 333.316 125.211C330.942 124.099 328.486 123.191 326 122.5C328.32 123.627 330.555 124.926 332.656 126.366C336.579 129.087 340.451 132.484 341.802 136.47C343.192 140.429 340.54 143.91 336.897 146.51C326.816 152.135 312.381 152.629 299.465 153.939C276.579 155.716 253.46 156.604 230.228 157.677C227.668 157.789 225.028 157.895 222.5 158Z" fill="black"/>
<path d="M17 161.5C18.0728 162.244 19.2503 162.988 20.3699 163.674C30.7269 169.902 42.1722 174.23 53.987 176.678C65.8004 179.099 78.1688 179.583 90.0693 177.35C91.3863 177.101 92.7023 176.818 94 176.5C92.6721 176.352 91.3444 176.192 90.0302 176.021C78.1894 174.458 66.8189 172.149 55.3951 169.821C43.9911 167.453 32.52 165.11 20.8741 162.443C19.6075 162.151 18.2657 161.819 17 161.5Z" fill="black"/>
<path d="M219.5 175.5C220.824 175.781 222.213 176.047 223.581 176.296C235.878 178.517 248.31 179.474 260.742 179.044C273.102 178.465 285.858 177.201 297.492 171.851C298.781 171.19 299.998 170.454 301 169.5C299.743 170.06 298.431 170.345 297.067 170.59C285 172.131 272.711 171.473 260.493 172.049C248.255 172.472 235.984 173.407 223.618 174.966C222.241 175.138 220.841 175.315 219.5 175.5Z" fill="black"/>
<path d="M83.5 132.5C84.653 132.93 85.8512 133.347 87.0641 133.745C97.815 137.283 108.966 139.419 120.256 139.958C131.464 140.351 143.32 139.777 153.823 134.604C154.943 134.001 156.058 133.295 157 132.5C155.831 132.886 154.594 133.158 153.394 133.346C142.459 134.688 131.555 133.335 120.579 132.965C109.603 132.441 98.5256 132.222 87.2656 132.43C85.9948 132.448 84.7303 132.47 83.5 132.5Z" fill="black"/>
<path d="M221 129.5C222.211 129.914 223.486 130.315 224.746 130.691C236.077 134.054 247.8 135.915 259.642 135.967C271.279 135.75 284.167 134.972 294.051 127.172C295.026 126.267 295.939 125.167 296.5 124C295.56 124.889 294.426 125.571 293.309 126.069C282.685 129.94 271.025 128.734 259.658 128.967C248.215 128.917 236.668 128.978 224.919 129.373C223.611 129.413 222.279 129.453 221 129.5Z" fill="black"/>
<path d="M180 281.5V352" stroke="black" stroke-width="7"/>
</svg>
