<svg width="163" height="47" viewBox="0 0 163 47" fill="none" xmlns="http://www.w3.org/2000/svg">
<path d="M2.73079 46V15.5585H10.2964L19.9213 31.5403L22.2492 36.3751L21.891 15.5585H29.0538V46H21.4881L11.8632 30.0182L9.53536 25.1386L9.8935 46H2.73079ZM48.7942 46.7163C39.3484 46.7163 33.5287 40.628 33.5287 30.824C33.5287 20.9753 39.3484 14.8422 48.7942 14.8422C58.1953 14.8422 64.015 20.9753 64.015 30.824C64.015 40.628 58.1953 46.7163 48.7942 46.7163ZM48.7942 40.8518C53.7634 40.8518 56.6732 37.0914 56.6732 30.824C56.6732 24.5566 53.7634 20.7067 48.7942 20.7067C43.7803 20.7067 40.8705 24.5119 40.8705 30.824C40.8705 37.0914 43.7803 40.8518 48.7942 40.8518ZM85.138 46L79.8555 38.1658L78.6021 35.9722L77.3038 38.1658L71.9765 46H64.4557L74.8416 30.3316L65.172 15.5585H73.4986L77.9753 22.1392L79.3631 24.6462L80.7956 22.1392L85.2723 15.5585H92.7484L83.0788 30.1525L93.4647 46H85.138ZM104.645 46V21.4229H95.1987V15.5585H121.298V21.4229H111.852V46H104.645ZM125.097 46V15.5585H134.543L141.168 33.5548L142.466 38.0762L143.765 33.5548L150.39 15.5585H159.567V46H152.405L152.807 23.5717L150.48 31.1374L144.929 46H139.736L134.14 31.0478L131.857 23.6165L132.259 46H125.097Z" fill="black"/>
<path d="M3.50468 12.4718V4.50069H4.36519V5.42159H4.47087C4.53629 5.32095 4.62687 5.19263 4.74261 5.03663C4.86087 4.87811 5.02945 4.73721 5.24836 4.61392C5.46978 4.48811 5.76919 4.42521 6.14661 4.42521C6.63474 4.42521 7.065 4.54724 7.43739 4.7913C7.80978 5.03537 8.10039 5.38134 8.30923 5.82921C8.51807 6.27708 8.62248 6.80546 8.62248 7.41437C8.62248 8.0283 8.51807 8.56046 8.30923 9.01085C8.10039 9.45872 7.81103 9.80595 7.44116 10.0525C7.07129 10.2966 6.64481 10.4186 6.16171 10.4186C5.78932 10.4186 5.49116 10.357 5.26723 10.2337C5.04329 10.1079 4.87094 9.96572 4.75016 9.80721C4.62939 9.64617 4.53629 9.51282 4.47087 9.40714H4.39539V12.4718H3.50468ZM4.38029 7.39927C4.38029 7.83708 4.44445 8.2233 4.57278 8.55795C4.7011 8.89008 4.88855 9.1505 5.13513 9.33921C5.38171 9.5254 5.68365 9.6185 6.04094 9.6185C6.41332 9.6185 6.72407 9.52037 6.97316 9.32411C7.22478 9.12534 7.41348 8.85863 7.53929 8.52398C7.66761 8.18682 7.73178 7.81192 7.73178 7.39927C7.73178 6.99166 7.66887 6.6243 7.54307 6.29721C7.41978 5.96759 7.23232 5.70717 6.98071 5.51595C6.73161 5.32221 6.41836 5.22534 6.04094 5.22534C5.67861 5.22534 5.37416 5.31717 5.12758 5.50085C4.881 5.68201 4.69481 5.93614 4.569 6.26324C4.44319 6.58782 4.38029 6.9665 4.38029 7.39927ZM12.3363 10.4186C11.8129 10.4186 11.3537 10.2941 10.9587 10.045C10.5662 9.79588 10.2592 9.4474 10.0378 8.99953C9.8189 8.55166 9.70945 8.0283 9.70945 7.42946C9.70945 6.82559 9.8189 6.29846 10.0378 5.84808C10.2592 5.39769 10.5662 5.04795 10.9587 4.79885C11.3537 4.54976 11.8129 4.42521 12.3363 4.42521C12.8596 4.42521 13.3176 4.54976 13.7101 4.79885C14.1051 5.04795 14.4121 5.39769 14.631 5.84808C14.8524 6.29846 14.9631 6.82559 14.9631 7.42946C14.9631 8.0283 14.8524 8.55166 14.631 8.99953C14.4121 9.4474 14.1051 9.79588 13.7101 10.045C13.3176 10.2941 12.8596 10.4186 12.3363 10.4186ZM12.3363 9.6185C12.7338 9.6185 13.0609 9.51659 13.3176 9.31279C13.5742 9.10898 13.7642 8.84101 13.8875 8.50888C14.0108 8.17675 14.0724 7.81695 14.0724 7.42946C14.0724 7.04198 14.0108 6.68092 13.8875 6.34627C13.7642 6.01163 13.5742 5.74114 13.3176 5.53482C13.0609 5.3285 12.7338 5.22534 12.3363 5.22534C11.9387 5.22534 11.6116 5.3285 11.355 5.53482C11.0984 5.74114 10.9084 6.01163 10.7851 6.34627C10.6618 6.68092 10.6002 7.04198 10.6002 7.42946C10.6002 7.81695 10.6618 8.17675 10.7851 8.50888C10.9084 8.84101 11.0984 9.10898 11.355 9.31279C11.6116 9.51659 11.9387 9.6185 12.3363 9.6185ZM17.439 10.2979L15.6727 4.50069H16.6087L17.8617 8.93914H17.9221L19.16 4.50069H20.1111L21.334 8.92405H21.3944L22.6474 4.50069H23.5834L21.8171 10.2979H20.9415L19.6733 5.8443H19.5827L18.3146 10.2979H17.439ZM26.9943 10.4186C26.4357 10.4186 25.9539 10.2953 25.5488 10.0488C25.1462 9.79966 24.8355 9.45243 24.6166 9.00708C24.4002 8.55921 24.292 8.03837 24.292 7.44456C24.292 6.85075 24.4002 6.3274 24.6166 5.8745C24.8355 5.41908 25.1399 5.0643 25.5299 4.81017C25.9224 4.55353 26.3804 4.42521 26.9037 4.42521C27.2057 4.42521 27.5038 4.47553 27.7982 4.57617C28.0926 4.67682 28.3606 4.84037 28.6021 5.06682C28.8437 5.29076 29.0362 5.58766 29.1796 5.95753C29.323 6.3274 29.3947 6.78282 29.3947 7.32379V7.70121H24.9261V6.93127H28.4889C28.4889 6.60417 28.4235 6.3123 28.2926 6.05566C28.1643 5.79901 27.9806 5.59646 27.7416 5.44801C27.5051 5.29956 27.2258 5.22534 26.9037 5.22534C26.549 5.22534 26.242 5.3134 25.9828 5.48953C25.7262 5.66314 25.5287 5.88959 25.3903 6.16888C25.2519 6.44817 25.1827 6.74759 25.1827 7.06714V7.58043C25.1827 8.01824 25.2582 8.38937 25.4092 8.69382C25.5626 8.99575 25.7753 9.22598 26.047 9.3845C26.3187 9.5405 26.6345 9.6185 26.9943 9.6185C27.2283 9.6185 27.4397 9.58579 27.6284 9.52037C27.8196 9.45243 27.9844 9.35179 28.1228 9.21843C28.2612 9.08256 28.3681 8.91398 28.4436 8.71269L29.3041 8.95424C29.2135 9.24611 29.0613 9.50275 28.8474 9.72417C28.6336 9.94308 28.3694 10.1142 28.0549 10.2375C27.7403 10.3582 27.3868 10.4186 26.9943 10.4186ZM30.7496 10.2979V4.50069H31.6102V5.3763H31.6705C31.7762 5.08947 31.9674 4.85672 32.2442 4.67808C32.521 4.49943 32.833 4.41011 33.1802 4.41011C33.2456 4.41011 33.3274 4.41137 33.4255 4.41388C33.5237 4.4164 33.5979 4.42017 33.6482 4.42521V5.33101C33.618 5.32346 33.5488 5.31214 33.4406 5.29705C33.335 5.27943 33.223 5.27063 33.1047 5.27063C32.8229 5.27063 32.5713 5.32976 32.3499 5.44801C32.131 5.56376 31.9574 5.72479 31.8291 5.93111C31.7032 6.13492 31.6403 6.36766 31.6403 6.62934V10.2979H30.7496ZM36.9582 10.4186C36.3996 10.4186 35.9178 10.2953 35.5127 10.0488C35.1101 9.79966 34.7993 9.45243 34.5804 9.00708C34.3641 8.55921 34.2559 8.03837 34.2559 7.44456C34.2559 6.85075 34.3641 6.3274 34.5804 5.8745C34.7993 5.41908 35.1038 5.0643 35.4938 4.81017C35.8863 4.55353 36.3442 4.42521 36.8676 4.42521C37.1695 4.42521 37.4677 4.47553 37.7621 4.57617C38.0565 4.67682 38.3244 4.84037 38.566 5.06682C38.8075 5.29076 39 5.58766 39.1434 5.95753C39.2869 6.3274 39.3586 6.78282 39.3586 7.32379V7.70121H34.8899V6.93127H38.4528C38.4528 6.60417 38.3873 6.3123 38.2565 6.05566C38.1282 5.79901 37.9445 5.59646 37.7055 5.44801C37.469 5.29956 37.1897 5.22534 36.8676 5.22534C36.5128 5.22534 36.2059 5.3134 35.9467 5.48953C35.6901 5.66314 35.4925 5.88959 35.3542 6.16888C35.2158 6.44817 35.1466 6.74759 35.1466 7.06714V7.58043C35.1466 8.01824 35.2221 8.38937 35.373 8.69382C35.5265 8.99575 35.7391 9.22598 36.0109 9.3845C36.2826 9.5405 36.5984 9.6185 36.9582 9.6185C37.1922 9.6185 37.4035 9.58579 37.5922 9.52037C37.7835 9.45243 37.9483 9.35179 38.0867 9.21843C38.2251 9.08256 38.332 8.91398 38.4075 8.71269L39.268 8.95424C39.1774 9.24611 39.0252 9.50275 38.8113 9.72417C38.5974 9.94308 38.3332 10.1142 38.0187 10.2375C37.7042 10.3582 37.3507 10.4186 36.9582 10.4186ZM42.9025 10.4186C42.4194 10.4186 41.993 10.2966 41.6231 10.0525C41.2532 9.80595 40.9639 9.45872 40.755 9.01085C40.5462 8.56046 40.4418 8.0283 40.4418 7.41437C40.4418 6.80546 40.5462 6.27708 40.755 5.82921C40.9639 5.38134 41.2545 5.03537 41.6269 4.7913C41.9992 4.54724 42.4295 4.42521 42.9176 4.42521C43.2951 4.42521 43.5932 4.48811 43.8121 4.61392C44.0335 4.73721 44.2021 4.87811 44.3179 5.03663C44.4361 5.19263 44.528 5.32095 44.5934 5.42159H44.6689V2.5683H45.5596V10.2979H44.6991V9.40714H44.5934C44.528 9.51282 44.4349 9.64617 44.3141 9.80721C44.1933 9.96572 44.021 10.1079 43.797 10.2337C43.5731 10.357 43.2749 10.4186 42.9025 10.4186ZM43.0233 9.6185C43.3806 9.6185 43.6825 9.5254 43.9291 9.33921C44.1757 9.1505 44.3632 8.89008 44.4915 8.55795C44.6198 8.2233 44.684 7.83708 44.684 7.39927C44.684 6.9665 44.6211 6.58782 44.4952 6.26324C44.3694 5.93614 44.1832 5.68201 43.9367 5.50085C43.6901 5.31717 43.3856 5.22534 43.0233 5.22534C42.6459 5.22534 42.3314 5.32221 42.0798 5.51595C41.8307 5.70717 41.6432 5.96759 41.5174 6.29721C41.3941 6.6243 41.3325 6.99166 41.3325 7.39927C41.3325 7.81192 41.3954 8.18682 41.5212 8.52398C41.6495 8.85863 41.8382 9.12534 42.0873 9.32411C42.3389 9.52037 42.6509 9.6185 43.0233 9.6185ZM50.4245 10.2979V2.5683H51.3152V5.42159H51.3907C51.4561 5.32095 51.5467 5.19263 51.6624 5.03663C51.7807 4.87811 51.9493 4.73721 52.1682 4.61392C52.3896 4.48811 52.689 4.42521 53.0664 4.42521C53.5546 4.42521 53.9848 4.54724 54.3572 4.7913C54.7296 5.03537 55.0202 5.38134 55.2291 5.82921C55.4379 6.27708 55.5423 6.80546 55.5423 7.41437C55.5423 8.0283 55.4379 8.56046 55.2291 9.01085C55.0202 9.45872 54.7309 9.80595 54.361 10.0525C53.9911 10.2966 53.5646 10.4186 53.0815 10.4186C52.7092 10.4186 52.411 10.357 52.1871 10.2337C51.9631 10.1079 51.7908 9.96572 51.67 9.80721C51.5492 9.64617 51.4561 9.51282 51.3907 9.40714H51.285V10.2979H50.4245ZM51.3001 7.39927C51.3001 7.83708 51.3643 8.2233 51.4926 8.55795C51.6209 8.89008 51.8084 9.1505 52.055 9.33921C52.3015 9.5254 52.6035 9.6185 52.9608 9.6185C53.3332 9.6185 53.6439 9.52037 53.893 9.32411C54.1446 9.12534 54.3333 8.85863 54.4591 8.52398C54.5874 8.18682 54.6516 7.81192 54.6516 7.39927C54.6516 6.99166 54.5887 6.6243 54.4629 6.29721C54.3396 5.96759 54.1522 5.70717 53.9005 5.51595C53.6514 5.32221 53.3382 5.22534 52.9608 5.22534C52.5984 5.22534 52.294 5.31717 52.0474 5.50085C51.8008 5.68201 51.6146 5.93614 51.4888 6.26324C51.363 6.58782 51.3001 6.9665 51.3001 7.39927ZM57.2709 12.4718C57.1199 12.4718 56.9853 12.4592 56.8671 12.434C56.7488 12.4114 56.667 12.3888 56.6217 12.3661L56.8482 11.5811C57.0646 11.6364 57.2558 11.6566 57.4219 11.6415C57.5879 11.6264 57.7351 11.5521 57.8634 11.4188C57.9943 11.2879 58.1138 11.0753 58.222 10.7809L58.3881 10.328L56.2443 4.50069H57.2105L58.8108 9.1203H58.8711L60.4714 4.50069H61.4376L58.9768 11.1433C58.8661 11.4427 58.729 11.6905 58.5654 11.8868C58.4019 12.0856 58.2119 12.2328 57.9955 12.3284C57.7817 12.424 57.5401 12.4718 57.2709 12.4718Z" fill="black"/>
</svg>
