<svg width="199" height="199" viewBox="0 0 199 199" fill="none" xmlns="http://www.w3.org/2000/svg">
<circle cx="99.4482" cy="99.5644" r="98.2826" stroke="#D2D0D0" stroke-width="0.854632" stroke-dasharray="6.84 6.84"/>
<circle cx="98.1643" cy="99.137" r="49.1413" stroke="#D2D0D0" stroke-width="0.854632" stroke-dasharray="7.71 7.71"/>
<path d="M66.0915 95.0786H0V103.968H66.0915L92.3735 101.649V98.1706L66.0915 95.0786Z" fill="black"/>
<path d="M131.024 95.0786H197.115V103.968H131.024L104.742 101.649V98.1706L131.024 95.0786Z" fill="black"/>
<path d="M71.8071 119.867L25.123 166.65L31.4155 172.929L78.0996 126.146L95.0226 105.904L92.5603 103.447L71.8071 119.867Z" fill="black"/>
<path d="M78.9134 73.0155L32.1797 26.2817L25.8939 32.5676L72.6276 79.3013L92.8516 96.2457L95.3112 93.786L78.9134 73.0155Z" fill="black"/>
<path d="M124.973 119.847L171.707 166.581L165.421 172.866L118.687 126.133L101.743 105.909L104.203 103.449L124.973 119.847Z" fill="black"/>
<path d="M102.811 66.0915L102.811 0L93.921 -3.88572e-07L93.921 66.0915L96.24 92.3735L99.7185 92.3735L102.811 66.0915Z" fill="black"/>
<path d="M124.973 80.0741L171.707 33.3403L165.421 27.0545L118.687 73.7883L101.743 94.0122L104.203 96.4719L124.973 80.0741Z" fill="black"/>
<path d="M93.9199 132.183L93.9199 198.274L102.809 198.274L102.809 132.183L100.49 105.901L97.0119 105.901L93.9199 132.183Z" fill="black"/>
</svg>
